<svg xmlns="http://www.w3.org/2000/svg" xmlns:xlink="http://www.w3.org/1999/xlink" viewBox="0 0 240 240"><defs><style>.cls-1{fill:url(#linear-gradient);}.cls-2{fill:#fffbff;}</style><linearGradient id="linear-gradient" x1="120.97" y1="251.77" x2="118.32" y2="-107.06" gradientUnits="userSpaceOnUse"><stop offset="0" stop-color="#ffed26"/><stop offset="0.01" stop-color="#fee821"/><stop offset="0.06" stop-color="#fdd50f"/><stop offset="0.11" stop-color="#fbca04"/><stop offset="0.16" stop-color="#fbc600"/><stop offset="0.49" stop-color="#ef8d34"/><stop offset="0.89" stop-color="#e75f32"/></linearGradient></defs><g id="Objects"><circle class="cls-1" cx="120" cy="120" r="110.5"/><path class="cls-2" d="M175.7,148.23c3.28,2.86,7.34,5.17,11.64,5.31a33.4,33.4,0,0,1-19.85-3c-3.13-1.55-6-3.58-9.25-4.91a14.22,14.22,0,0,0-8.08-1.08,22.77,22.77,0,0,1,6.58,8c2.21,4.2,3.65,8.78,5.95,12.94,2.1,3.8,5.13,7.37,9.11,9A33.33,33.33,0,0,1,154.17,165c-2.42-2.52-4.43-5.42-7-7.77a14.21,14.21,0,0,0-7.23-3.78,22.82,22.82,0,0,1,3.43,9.82c.64,4.7.43,9.5,1.16,14.19.68,4.3,2.3,8.68,5.5,11.55a33.39,33.39,0,0,1-13.3-15c-1.4-3.2-2.3-6.61-3.92-9.71a14.26,14.26,0,0,0-5.5-6,22.85,22.85,0,0,1-.13,10.4c-1,4.64-2.85,9.07-3.77,13.74-.83,4.26-.8,8.93,1.22,12.73a33.41,33.41,0,0,1-7.36-18.68c-.23-3.48.1-7-.36-10.46a14.33,14.33,0,0,0-3.11-7.54,22.85,22.85,0,0,1-3.69,9.73c-2.53,4-5.78,7.55-8.23,11.62-2.24,3.72-3.81,8.12-3.21,12.38a33.42,33.42,0,0,1-.53-20.06c1-3.36,2.49-6.55,3.24-10A14.2,14.2,0,0,0,101,154a22.77,22.77,0,0,1-6.78,7.88c-3.76,2.9-8,5.12-11.71,8.1-3.39,2.73-6.37,6.33-7.25,10.54a33.32,33.32,0,0,1,6.36-19c2.06-2.82,4.57-5.31,6.44-8.25a14.25,14.25,0,0,0,2.47-7.78,22.84,22.84,0,0,1-9.07,5.08C77,152,72.19,152.59,67.7,154.13c-4.11,1.4-8.14,3.77-10.42,7.42a33.38,33.38,0,0,1,12.5-15.71c2.9-1.94,6.11-3.42,8.87-5.55a14.28,14.28,0,0,0,5-6.47,22.76,22.76,0,0,1-10.27,1.68c-4.74-.19-9.43-1.23-14.18-1.32-4.34-.08-8.94.76-12.32,3.41A33.39,33.39,0,0,1,64,127.1c3.39-.83,6.91-1.12,10.24-2.18a14.27,14.27,0,0,0,6.89-4.37,22.66,22.66,0,0,1-10.22-1.94c-4.4-1.8-8.45-4.38-12.88-6.09-4-1.56-8.66-2.34-12.75-1a33.35,33.35,0,0,1,19.67-4c3.47.38,6.88,1.31,10.36,1.45a14.18,14.18,0,0,0,8-1.75,22.91,22.91,0,0,1-8.94-5.31c-3.51-3.2-6.43-7-10-10.13C61,88.91,57,86.6,52.66,86.46a33.4,33.4,0,0,1,19.85,3c3.13,1.55,6,3.58,9.25,4.91a14.22,14.22,0,0,0,8.08,1.08,22.77,22.77,0,0,1-6.58-8c-2.21-4.2-3.65-8.78-6-12.94-2.1-3.8-5.13-7.36-9.11-9A33.33,33.33,0,0,1,85.83,75c2.42,2.52,4.43,5.42,7,7.77a14.21,14.21,0,0,0,7.23,3.78,22.82,22.82,0,0,1-3.43-9.82c-.64-4.7-.43-9.5-1.16-14.19-.68-4.3-2.3-8.68-5.5-11.55a33.39,33.39,0,0,1,13.3,15c1.4,3.2,2.3,6.61,3.92,9.71a14.26,14.26,0,0,0,5.5,6,22.85,22.85,0,0,1,.13-10.4c1-4.64,2.85-9.07,3.77-13.74.83-4.26.8-8.93-1.22-12.73a33.41,33.41,0,0,1,7.36,18.68c.23,3.48-.1,7,.36,10.46a14.33,14.33,0,0,0,3.11,7.54,22.9,22.9,0,0,1,3.69-9.73c2.53-4,5.78-7.55,8.23-11.62,2.24-3.72,3.81-8.12,3.21-12.38a33.45,33.45,0,0,1,.53,20.07c-1,3.35-2.49,6.54-3.24,9.95A14.2,14.2,0,0,0,139,86a22.77,22.77,0,0,1,6.78-7.88c3.76-2.9,8-5.12,11.71-8.1,3.39-2.73,6.37-6.33,7.25-10.54a33.32,33.32,0,0,1-6.36,19c-2.06,2.82-4.57,5.31-6.44,8.25a14.25,14.25,0,0,0-2.47,7.78,22.84,22.84,0,0,1,9.07-5.08c4.53-1.45,9.29-2.07,13.78-3.61,4.11-1.41,8.14-3.78,10.42-7.43a33.38,33.38,0,0,1-12.5,15.71c-2.9,1.94-6.11,3.42-8.87,5.55a14.28,14.28,0,0,0-5,6.47,22.76,22.76,0,0,1,10.27-1.68c4.74.19,9.43,1.23,14.18,1.32,4.34.08,8.94-.76,12.32-3.41A33.39,33.39,0,0,1,176,112.9c-3.39.83-6.91,1.12-10.24,2.18a14.27,14.27,0,0,0-6.89,4.37,22.66,22.66,0,0,1,10.22,1.94c4.4,1.8,8.45,4.38,12.88,6.09,4.05,1.56,8.66,2.34,12.75,1a33.35,33.35,0,0,1-19.67,4c-3.47-.38-6.88-1.31-10.36-1.45a14.18,14.18,0,0,0-8,1.75,22.91,22.91,0,0,1,8.94,5.31C169.2,141.3,172.12,145.11,175.7,148.23Z"/></g></svg>