{
  "accessors": [
    {
      "bufferView": 2,
      "componentType": 5126,
      "count": 461,
      "max": [
        0.2942905128002167,
        0.3110363185405731,
        0.4747867286205292
      ],
      "min": [
        -0.3223314881324768,
        -0.2974420189857483,
        -0.4491511881351471
      ],
      "type": "VEC3"
    },
    {
      "bufferView": 2,
      "byteOffset": 5532,
      "componentType": 5126,
      "count": 461,
      "max": [
        0.9998725056648254,
        0.9974703192710876,
        0.9990488886833191
      ],
      "min": [
        -0.9626796841621399,
        -0.9892997741699219,
        -0.9977066516876221
      ],
      "type": "VEC3"
    },
    {
      "bufferView": 1,
      "componentType": 5126,
      "count": 461,
      "max": [
        0.97731614112854,
        0.9943159818649292
      ],
      "min": [
        0.003324359655380249,
        0.0033243894577026367
      ],
      "type": "VEC2"
    },
    {
      "bufferView": 0,
      "componentType": 5125,
      "count": 2124,
      "type": "SCALAR"
    }
  ],
  "asset": {
    "extras": {
      "author": "klrxyz (https://sketchfab.com/klrxyz)",
      "license": "CC-BY-4.0 (http://creativecommons.org/licenses/by/4.0/)",
      "source": "https://sketchfab.com/3d-models/an-ai-assistants-cartoon-design-with-joystick-an-99a5d8c422e34948834116012a10bd0d",
      "title": "An AI assistants cartoon design with joystick an"
    },
    "generator": "Sketchfab-16.7.0",
    "version": "2.0"
  },
  "bufferViews": [
    {
      "buffer": 0,
      "byteLength": 8496,
      "name": "floatBufferViews",
      "target": 34963
    },
    {
      "buffer": 0,
      "byteLength": 3688,
      "byteOffset": 8496,
      "byteStride": 8,
      "name": "floatBufferViews",
      "target": 34962
    },
    {
      "buffer": 0,
      "byteLength": 11064,
      "byteOffset": 12184,
      "byteStride": 12,
      "name": "floatBufferViews",
      "target": 34962
    }
  ],
  "buffers": [
    {
      "byteLength": 23248,
      "uri": "scene.bin"
    }
  ],
  "images": [
    {
      "uri": "textures/SimplygonCastMaterial_baseColor.png"
    }
  ],
  "materials": [
    {
      "doubleSided": true,
      "name": "SimplygonCastMaterial",
      "pbrMetallicRoughness": {
        "baseColorTexture": {
          "index": 0
        },
        "metallicFactor": 0.0
      }
    }
  ],
  "meshes": [
    {
      "name": "ProcessedMeshNode_LOD1_SimplygonCastMaterial_0",
      "primitives": [
        {
          "attributes": {
            "NORMAL": 1,
            "POSITION": 0,
            "TEXCOORD_0": 2
          },
          "indices": 3,
          "material": 0,
          "mode": 4
        }
      ]
    }
  ],
  "nodes": [
    {
      "children": [
        1
      ],
      "matrix": [
        1.0,
        0.0,
        0.0,
        0.0,
        0.0,
        2.220446049250313e-16,
        -1.0,
        0.0,
        0.0,
        1.0,
        2.220446049250313e-16,
        0.0,
        0.0,
        0.0,
        0.0,
        1.0
      ],
      "name": "Sketchfab_model"
    },
    {
      "children": [
        2
      ],
      "matrix": [
        0.009999999776482582,
        0.0,
        0.0,
        0.0,
        0.0,
        0.0,
        0.009999999776482582,
        0.0,
        0.0,
        -0.009999999776482582,
        0.0,
        0.0,
        0.0,
        0.0,
        0.0,
        1.0
      ],
      "name": "final.fbx"
    },
    {
      "children": [
        3
      ],
      "name": "RootNode"
    },
    {
      "children": [
        4
      ],
      "matrix": [
        4.3711386728180365e-06,
        1.1102229399218618e-14,
        99.99999237060538,
        0.0,
        99.99999237060528,
        -4.3711386728180365e-06,
        -4.371138678369152e-06,
        0.0,
        4.371139011860592e-06,
        99.99999999999991,
        -1.9984014443252818e-13,
        0.0,
        0.0,
        0.0,
        0.0,
        1.0
      ],
      "name": "ProcessedMeshNode_LOD1"
    },
    {
      "mesh": 0,
      "name": "ProcessedMeshNode_LOD1_SimplygonCastMaterial_0"
    }
  ],
  "samplers": [
    {
      "magFilter": 9729,
      "minFilter": 9987,
      "wrapS": 10497,
      "wrapT": 10497
    }
  ],
  "scene": 0,
  "scenes": [
    {
      "name": "Sketchfab_Scene",
      "nodes": [
        0
      ]
    }
  ],
  "textures": [
    {
      "sampler": 0,
      "source": 0
    }
  ]
}
