<svg xmlns="http://www.w3.org/2000/svg" xmlns:xlink="http://www.w3.org/1999/xlink" viewBox="0 0 240 240"><defs><style>.cls-1{isolation:isolate;}.cls-2{fill:url(#Áåçûìÿííûé_ãðàäèåíò_3);}.cls-3{fill:url(#Áåçûìÿííûé_ãðàäèåíò_3-2);}.cls-4{fill:url(#Áåçûìÿííûé_ãðàäèåíò_3-3);}.cls-5{fill:url(#Áåçûìÿííûé_ãðàäèåíò_3-4);}.cls-6{fill:url(#Áåçûìÿííûé_ãðàäèåíò_3-5);}.cls-7{fill:url(#Áåçûìÿííûé_ãðàäèåíò_48);}.cls-8{fill:url(#Áåçûìÿííûé_ãðàäèåíò_48-2);}.cls-9{fill:url(#Áåçûìÿííûé_ãðàäèåíò_3-6);}.cls-10,.cls-12,.cls-14,.cls-16,.cls-17,.cls-20,.cls-21,.cls-24,.cls-28{mix-blend-mode:screen;}.cls-10{fill:url(#Áåçûìÿííûé_ãðàäèåíò_47);}.cls-11{fill:url(#Áåçûìÿííûé_ãðàäèåíò_3-7);}.cls-12{fill:url(#Áåçûìÿííûé_ãðàäèåíò_47-2);}.cls-13{fill:url(#Áåçûìÿííûé_ãðàäèåíò_3-8);}.cls-14{fill:url(#Áåçûìÿííûé_ãðàäèåíò_47-3);}.cls-15{fill:url(#Áåçûìÿííûé_ãðàäèåíò_3-9);}.cls-16{fill:url(#Áåçûìÿííûé_ãðàäèåíò_47-4);}.cls-17{fill:url(#Áåçûìÿííûé_ãðàäèåíò_47-5);}.cls-18{fill:url(#Áåçûìÿííûé_ãðàäèåíò_215);}.cls-19{fill:#efffe8;}.cls-20{fill:url(#Áåçûìÿííûé_ãðàäèåíò_16);}.cls-21{fill:url(#Áåçûìÿííûé_ãðàäèåíò_47-6);}.cls-22{fill:url(#Áåçûìÿííûé_ãðàäèåíò_3-10);}.cls-23{fill:url(#Áåçûìÿííûé_ãðàäèåíò_3-11);}.cls-24{fill:url(#Áåçûìÿííûé_ãðàäèåíò_47-7);}.cls-25{fill:url(#Áåçûìÿííûé_ãðàäèåíò_48-3);}.cls-26{fill:url(#Áåçûìÿííûé_ãðàäèåíò_48-4);}.cls-27{fill:url(#Áåçûìÿííûé_ãðàäèåíò_48-5);}.cls-28{fill:url(#Áåçûìÿííûé_ãðàäèåíò_16-2);}</style><linearGradient id="Áåçûìÿííûé_ãðàäèåíò_3" x1="541.73" y1="157.43" x2="546.73" y2="126.63" gradientTransform="matrix(-0.98, -0.21, -0.21, 0.98, 676.38, 72.67)" gradientUnits="userSpaceOnUse"><stop offset="0" stop-color="#664473"/><stop offset="1" stop-color="#251942"/></linearGradient><linearGradient id="Áåçûìÿííûé_ãðàäèåíò_3-2" x1="503.56" y1="130.6" x2="508.04" y2="83.73" xlink:href="#Áåçûìÿííûé_ãðàäèåíò_3"/><linearGradient id="Áåçûìÿííûé_ãðàäèåíò_3-3" x1="463.72" y1="61.65" x2="457.47" y2="121.73" xlink:href="#Áåçûìÿííûé_ãðàäèåíò_3"/><linearGradient id="Áåçûìÿííûé_ãðàäèåíò_3-4" x1="457.89" y1="142.51" x2="395.51" y2="195.82" xlink:href="#Áåçûìÿííûé_ãðàäèåíò_3"/><linearGradient id="Áåçûìÿííûé_ãðàäèåíò_3-5" x1="426.67" y1="181.1" x2="444.57" y2="149.24" xlink:href="#Áåçûìÿííûé_ãðàäèåíò_3"/><linearGradient id="Áåçûìÿííûé_ãðàäèåíò_48" x1="498.31" y1="176.88" x2="456.91" y2="225.19" gradientTransform="matrix(-0.98, -0.21, -0.21, 0.98, 676.38, 72.67)" gradientUnits="userSpaceOnUse"><stop offset="0" stop-color="#6f75a6"/><stop offset="1" stop-color="#21295e"/></linearGradient><linearGradient id="Áåçûìÿííûé_ãðàäèåíò_48-2" x1="510.32" y1="165.43" x2="460.41" y2="219.49" xlink:href="#Áåçûìÿííûé_ãðàäèåíò_48"/><linearGradient id="Áåçûìÿííûé_ãðàäèåíò_3-6" x1="488.92" y1="170.88" x2="451.16" y2="254.72" xlink:href="#Áåçûìÿííûé_ãðàäèåíò_3"/><linearGradient id="Áåçûìÿííûé_ãðàäèåíò_47" x1="489.57" y1="196.73" x2="476.54" y2="160.91" gradientTransform="matrix(-0.98, -0.21, -0.21, 0.98, 676.38, 72.67)" gradientUnits="userSpaceOnUse"><stop offset="0" stop-color="#5e4491"/><stop offset="1"/></linearGradient><linearGradient id="Áåçûìÿííûé_ãðàäèåíò_3-7" x1="493.99" y1="142.77" x2="454.71" y2="242.25" xlink:href="#Áåçûìÿííûé_ãðàäèåíò_3"/><linearGradient id="Áåçûìÿííûé_ãðàäèåíò_47-2" x1="485.38" y1="238.31" x2="463.03" y2="185.03" xlink:href="#Áåçûìÿííûé_ãðàäèåíò_47"/><linearGradient id="Áåçûìÿííûé_ãðàäèåíò_3-8" x1="472.99" y1="145.26" x2="429.68" y2="178.26" xlink:href="#Áåçûìÿííûé_ãðàäèåíò_3"/><linearGradient id="Áåçûìÿííûé_ãðàäèåíò_47-3" x1="466.03" y1="149.29" x2="425.52" y2="178.42" xlink:href="#Áåçûìÿííûé_ãðàäèåíò_47"/><linearGradient id="Áåçûìÿííûé_ãðàäèåíò_3-9" x1="489.48" y1="180.09" x2="442.79" y2="241.14" xlink:href="#Áåçûìÿííûé_ãðàäèåíò_3"/><linearGradient id="Áåçûìÿííûé_ãðàäèåíò_47-4" x1="485.32" y1="208.03" x2="478.13" y2="181.09" xlink:href="#Áåçûìÿííûé_ãðàäèåíò_47"/><linearGradient id="Áåçûìÿííûé_ãðàäèåíò_47-5" x1="448.67" y1="203.5" x2="481.8" y2="198.31" xlink:href="#Áåçûìÿííûé_ãðàäèåíò_47"/><linearGradient id="Áåçûìÿííûé_ãðàäèåíò_215" x1="468.05" y1="216.83" x2="457.95" y2="186.52" gradientTransform="matrix(-0.98, -0.21, -0.21, 0.98, 676.38, 72.67)" gradientUnits="userSpaceOnUse"><stop offset="0" stop-color="#8ae3dd"/><stop offset="1" stop-color="#2bb4d6"/></linearGradient><linearGradient id="Áåçûìÿííûé_ãðàäèåíò_16" x1="511.91" y1="203.07" x2="482.28" y2="159.37" gradientTransform="matrix(-0.98, -0.21, -0.21, 0.98, 676.38, 72.67)" gradientUnits="userSpaceOnUse"><stop offset="0" stop-color="#445b91"/><stop offset="1"/></linearGradient><linearGradient id="Áåçûìÿííûé_ãðàäèåíò_47-6" x1="518.23" y1="70.76" x2="467.94" y2="89.19" xlink:href="#Áåçûìÿííûé_ãðàäèåíò_47"/><linearGradient id="Áåçûìÿííûé_ãðàäèåíò_3-10" x1="555.72" y1="119.58" x2="542.57" y2="166.36" xlink:href="#Áåçûìÿííûé_ãðàäèåíò_3"/><linearGradient id="Áåçûìÿííûé_ãðàäèåíò_3-11" x1="640.32" y1="104.83" x2="593.53" y2="177.75" xlink:href="#Áåçûìÿííûé_ãðàäèåíò_3"/><linearGradient id="Áåçûìÿííûé_ãðàäèåíò_47-7" x1="640.32" y1="99.62" x2="631.38" y2="155" xlink:href="#Áåçûìÿííûé_ãðàäèåíò_47"/><linearGradient id="Áåçûìÿííûé_ãðàäèåíò_48-3" x1="573.35" y1="127.47" x2="545.65" y2="248.22" xlink:href="#Áåçûìÿííûé_ãðàäèåíò_48"/><linearGradient id="Áåçûìÿííûé_ãðàäèåíò_48-4" x1="579.44" y1="97.57" x2="551.54" y2="206.94" xlink:href="#Áåçûìÿííûé_ãðàäèåíò_48"/><linearGradient id="Áåçûìÿííûé_ãðàäèåíò_48-5" x1="539.8" y1="234.88" x2="549.72" y2="193.34" xlink:href="#Áåçûìÿííûé_ãðàäèåíò_48"/><linearGradient id="Áåçûìÿííûé_ãðàäèåíò_16-2" x1="596.79" y1="196.85" x2="565.54" y2="121.39" xlink:href="#Áåçûìÿííûé_ãðàäèåíò_16"/></defs><g class="cls-1"><g id="layer_1" data-name="layer 1"><path class="cls-2" d="M100.45,89.75c6.2,1.52,9.24,4.91,14.64,8.29a111.94,111.94,0,0,1,14.71-23.2c-4.1-2.18-7.54-5-11.65-7.22-1.58,1.38-3.12,2.79-4.61,4.25a58.35,58.35,0,0,0-11.93,15.42C101.19,88.09,100.81,88.92,100.45,89.75Z"/><path class="cls-3" d="M116.31,72c.53.28,13.37,8.18,13.37,8.18s30.12-35.77,51.91-35.62c19.06.13,22.52,9.2,22.52,9.2-1.4-.43-8-11-14.31-12.27-7-1.45-22.06-2.63-31.47,1s-23.44,12.43-32.46,18S116.31,72,116.31,72Z"/><path class="cls-4" d="M206.09,108.07l7.93,13,6.44-21L217.8,95s3-24.28-4.52-36.27c-7.6-12.16-21.4-18.12-21.4-18.12s10.92,8,13.53,15.87,4.79,14,4.31,21.14-5.82,24.34-5.82,24.34Z"/><path class="cls-5" d="M110.13,69.67,116.31,72s15.91-19,38.35-27.27c9.47-3.48,20.1-5,31.18-2.44l.69.17c35.22,9,13.19,62.93,13.19,62.93l6.37,2.69,6.18-18.61-3.17-2.64s7.3-41.17-21.55-47.43c-.25,0-.5-.11-.76-.15-11.3-2.25-22.78.2-32.52,4A104.78,104.78,0,0,0,128.45,58l-5.82-.28Z"/><polygon class="cls-6" points="214.02 121.11 207.15 118 199.72 105.38 206.09 108.07 214.02 121.11"/><path class="cls-7" d="M133.17,174.9a34.91,34.91,0,0,0,1.12,9.33c.22.75.3,1.49.46,2.21a5.84,5.84,0,0,0,.54,1.51A10,10,0,0,0,138,191c1.89,1.44,4.18,2.39,6,3.93s3.25,3.56,5.36,4.9c3.72,2.37,8.88,2.18,12.83.44,4.95-2.18,8.48-6.9,11.6-11.53a221.35,221.35,0,0,0,20.41-38l2.72-.53a23.06,23.06,0,0,0-.2-3.8,12.83,12.83,0,0,0-1.15-4.47,23.27,23.27,0,0,0-2.92-3.8c-.53-.56-1.07-1.11-1.63-1.61a35.89,35.89,0,0,0-5.81-4.32,64,64,0,0,0-7.94-4,18.57,18.57,0,0,0-15.24-.15c-6.08,2.39-11.3,6.7-15.56,11.57a54.66,54.66,0,0,0-9.77,15.72A51,51,0,0,0,133.17,174.9Z"/><path class="cls-8" d="M134.75,186.44a5.84,5.84,0,0,0,.54,1.51A10,10,0,0,0,138,191c1.89,1.44,4.18,2.39,6,3.93s3.25,3.56,5.36,4.9c3.72,2.37,8.88,2.18,12.83.44,4.95-2.18,8.48-6.9,11.6-11.53a221.35,221.35,0,0,0,20.41-38l2.72-.53a23.06,23.06,0,0,0-.2-3.8,12.83,12.83,0,0,0-1.15-4.47,23.27,23.27,0,0,0-2.92-3.8c-.53-.56-1.07-1.11-1.63-1.61-1.54.49-2.88-.34-4.14-1.12a15.63,15.63,0,0,0-5.8-2.06,16.61,16.61,0,0,0-6.91.35c-6.07,1.54-11.11,5.75-15.42,10.3-6,6.31-11.05,13.58-14,21.76s-3.64,17.28-1,25.57A22.93,22.93,0,0,0,134.75,186.44Z"/><path class="cls-9" d="M143.62,183.9s1,5.2,6.77,10.77S170,186.51,170,186.51l22.36-45.46-4.73-3.84s-6.11-3.83-15.11-.61c-4.64,1.67-10.06,5.19-15.79,12.1-.7.86-1.37,1.7-2,2.52C140,170.39,143.62,183.9,143.62,183.9Z"/><path class="cls-10" d="M154.69,151.22a13,13,0,0,1,4.73,3.65c1.13-1.25,2.31-2.46,3.53-3.65a82.71,82.71,0,0,1,6.89-6c1.21-.94,2.44-1.86,3.7-2.74s2.71-1.62,3.85-2.56a26.53,26.53,0,0,0-3.22-2.38,10.81,10.81,0,0,0-1.7-.94c-4.64,1.67-10.06,5.19-15.79,12.1C156,149.56,155.31,150.4,154.69,151.22Z"/><path class="cls-11" d="M148.43,191.4c7.74,13.34,23.55,9.23,32.89,1a61.64,61.64,0,0,0,17.11-24.74,42,42,0,0,0,1.67-5.85c1.73-8.22.12-16-7.79-20.81-7.39-4.53-15.65-2.91-22.24,1.87l-.52.4c-8.73,6.51-15.07,15.71-19.44,25.36C147,175.65,144.25,184.16,148.43,191.4Z"/><path class="cls-12" d="M169.55,143.32a45.17,45.17,0,0,0-.34,8.7,40.19,40.19,0,0,0,3.48,14.35,35.11,35.11,0,0,0,3.67,6.27c2.43,3.29,5.69,6.3,9.73,7a4.71,4.71,0,0,0,3.38-.48,12.62,12.62,0,0,0,2.24-1.26,15.44,15.44,0,0,0,3.44-4.06,48.46,48.46,0,0,0,3.28-6.11,42,42,0,0,0,1.67-5.85c1.73-8.22.12-16-7.79-20.81-7.39-4.53-15.65-2.91-22.24,1.87Z"/><path class="cls-13" d="M188.93,148c.2,1.62.67,3.29.92,4.54a4.24,4.24,0,0,0,1.72,3,3.33,3.33,0,0,0,3.46-.38,6.14,6.14,0,0,0,2.18-2,119.66,119.66,0,0,0,14.47-32.75c-1.36-3.81-3-7.83-5.57-10.92a4,4,0,0,1-.5-.1,26.05,26.05,0,0,0-2.93-.91c-2.41,12.63-7.54,24.43-13.41,35.88A6.53,6.53,0,0,0,188.93,148Z"/><path class="cls-14" d="M188.93,148a2.56,2.56,0,0,0,.76-.37,6,6,0,0,0,1.71-2.18c1.76-3.09,3.41-6.25,4.92-9.47a139.56,139.56,0,0,0,6.85-17.66c.9-3,1.73-6,2.44-9a26.05,26.05,0,0,0-2.93-.91c-2.41,12.63-7.54,24.43-13.41,35.88A6.53,6.53,0,0,0,188.93,148Z"/><path class="cls-15" d="M153.06,185.3a10.66,10.66,0,0,0,.86,2.54c1.79,3.65,5.33,5,9,7.32-4.72-3-5.86-9.42-5.31-15a37.74,37.74,0,0,1,2.78-10.77c.22-.51.44-1,.68-1.51A41,41,0,0,1,175,151.29a30,30,0,0,1,9.86-4.28c.6-.13,1.21-.25,1.84-.35a4.34,4.34,0,0,1-.79-1.65c-.11-.59-.68-.52-1.21-.59a17.4,17.4,0,0,0-3.95,0,23.89,23.89,0,0,0-10.36,3.84,40.16,40.16,0,0,0-13.54,15.6C153.28,170.88,151.66,178.72,153.06,185.3Z"/><path class="cls-16" d="M156.88,163.82a37.77,37.77,0,0,0,4.21,4.09A41,41,0,0,1,175,151.29a18,18,0,0,0-4.61-3.07A40.16,40.16,0,0,0,156.88,163.82Z"/><path class="cls-17" d="M172.85,180.09c7.05-.17,14.28-3,18.69-8.52a26.63,26.63,0,0,0-10-12.37c-.08.4-.17.8-.25,1.2a66.17,66.17,0,0,1-7.56,18.18C173.44,179.08,173.15,179.59,172.85,180.09Z"/><path class="cls-18" d="M173.73,178.58a23.87,23.87,0,0,0,14.59-8.11,26.51,26.51,0,0,0-7-10.07A66.17,66.17,0,0,1,173.73,178.58Z"/><path class="cls-19" d="M156.11,151.54a.62.62,0,0,1,.27.05.85.85,0,0,1,.17.06l.15.1.39.28a2,2,0,0,1,.37.4l.28.36a.24.24,0,0,1,0,.31.27.27,0,0,1-.31.06L157,153a1.72,1.72,0,0,1-.47-.28c-.27-.23-.6-.46-.66-.84A.28.28,0,0,1,156.11,151.54Z"/><path class="cls-19" d="M158.69,165.21a.54.54,0,0,1,.47-.15h0a.7.7,0,0,1,.29,0l.19,0,.16,0a1.71,1.71,0,0,1,.72.43,1.48,1.48,0,0,1,.28.28,2.06,2.06,0,0,1,.16.37,1.07,1.07,0,0,1,.09.47.68.68,0,0,1-.11.39.59.59,0,0,1-.31.23l-.06,0a1,1,0,0,1-.42,0l-.16,0-.2,0a1.09,1.09,0,0,1-.46-.25l-.09-.07-.16-.13a1.17,1.17,0,0,1-.35-.5,1.1,1.1,0,0,1-.13-.53l0-.07A.52.52,0,0,1,158.69,165.21Z"/><path class="cls-19" d="M199.68,123.11a9.2,9.2,0,0,1,.41-1c.09-.18.2-.35.3-.52s.3-.3.43-.48a.44.44,0,0,1,.76.27,4.89,4.89,0,0,1,0,.66c0,.2,0,.4-.06.6a9.55,9.55,0,0,1-.3,1.08A6.4,6.4,0,0,1,200,125.8a.35.35,0,0,1-.6-.22A6.46,6.46,0,0,1,199.68,123.11Z"/><path class="cls-19" d="M187.48,170.07a18.63,18.63,0,0,1-8.26,5.15s4.6-10.84,4.67-10.22S187.48,170.07,187.48,170.07Z"/><path class="cls-20" d="M143.34,145.87a43.45,43.45,0,0,1,5.18-6.59,44.53,44.53,0,0,1,9.22-7.36,43.34,43.34,0,0,1,5.26-2.68,8.13,8.13,0,0,1,2.65-1,17.28,17.28,0,0,1,2.4.16,11.43,11.43,0,0,1,3.82,1.2,10.6,10.6,0,0,1,1.56,1c.13.1,1.09,1.06,1.15,1a40.8,40.8,0,0,0-5.75,2.53,42.07,42.07,0,0,0-4.14,2.58,41,41,0,0,0-8.73,8.37,18.2,18.2,0,0,1-3.31,3.64,5.37,5.37,0,0,1-2.1,1,2.16,2.16,0,0,0-.57.14c-.12.06-.18.17-.32.19s-.64-.33-.8-.43l-1.6-.95-3.52-2.08C143,146.24,142.9,146.56,143.34,145.87Z"/><path class="cls-21" d="M154.27,43.23l.39,1.49c9.47-3.48,20.1-5,31.18-2.44l.69.17.26-3.21C175.49,37,164,39.44,154.27,43.23Z"/><path class="cls-19" d="M167.31,40.44a1.6,1.6,0,0,1,.51-.35l.5-.2a4.64,4.64,0,0,1,1.23-.19,3.61,3.61,0,0,1,1.18-.07,3.16,3.16,0,0,1,.53.13.45.45,0,0,1,.28.58.73.73,0,0,1-.4.37,2.34,2.34,0,0,1-.5.25c-.35.1-.75.13-1.11.2l-.47.08-.27,0a2.75,2.75,0,0,1-.4,0l-.44,0a1.57,1.57,0,0,1-.53-.17A.41.41,0,0,1,167.31,40.44Z"/><path class="cls-22" d="M101.61,87.29l2.42.19a64.23,64.23,0,0,1,11.23-14.72c-.58-.29-1.15-.58-1.72-.89A58.35,58.35,0,0,0,101.61,87.29Z"/><path class="cls-23" d="M38.3,74.15c-1.51-5.3,3-11.27,1-16.39s-7.78-9.19-13-7.44C22,51.75,20.3,55.94,19.6,60a3.63,3.63,0,0,0,.51,2.49c1,2.07,2,4.11,3.1,6.11a108,108,0,0,0,7.35,11.56,109.77,109.77,0,0,0,18.72,19.92,107.25,107.25,0,0,0,18.56,12.37c.62.32,2.62-5.43,2.38-6.28-.43-1.5-2.71-1.8-4-2.25a44.17,44.17,0,0,1-11.34-6.09A45.51,45.51,0,0,1,39.44,77.59C39,76.46,38.63,75.31,38.3,74.15Z"/><path class="cls-24" d="M23.68,54.7c1.1-2.13,4.76-3.8,7.14-3.23s3.84,4.62,1.84,6.39a10.5,10.5,0,0,1-1.08.63c-1.66,1.2-3,3.12-4.4,4.61a2.62,2.62,0,0,1-1.67,1c-1.07,0-1.7-1.19-2-2.22C22.85,59.55,22.55,56.89,23.68,54.7Z"/><path class="cls-19" d="M27,52a1.84,1.84,0,0,1,1.23-.68,5.71,5.71,0,0,1,.83,0l.4,0a3.58,3.58,0,0,1,.45,0,3,3,0,0,1,.44.17,1.22,1.22,0,0,1,.48.33c.12.13.23.26.34.4a.79.79,0,0,1-.24,1.09l-.29.17a1.72,1.72,0,0,1-.62.19l-.24,0,.3-.06a1.78,1.78,0,0,1-.39.07,3,3,0,0,1-.42,0l.32,0a8,8,0,0,0-1,0,2.24,2.24,0,0,1-1.28-.23.85.85,0,0,1-.42-.24,1,1,0,0,1-.26-.42.88.88,0,0,1,0-.36A.92.92,0,0,1,27,52Z"/><path class="cls-25" d="M109.8,143.93c-9,9.11-20.4,14.34-33.1,9.84a41,41,0,0,1-14.19-8.88c-3.74-3.52-7.85-7.94-8.28-13.31a38.41,38.41,0,0,1,2-14.77C61.57,100.06,75,81.28,94.81,82.38A29.6,29.6,0,0,1,108.7,87c4,2.47,8.77,5.87,11.69,9.53,5.69,7.1,5.36,16.93,2.88,25.22A54.15,54.15,0,0,1,109.8,143.93Z"/><path class="cls-26" d="M98,95.16a4.63,4.63,0,0,0-1.66-.07,11.07,11.07,0,0,0-3.16,1.09,51.68,51.68,0,0,0-6.75,3.23,37.39,37.39,0,0,0-13.22,14.72,70.72,70.72,0,0,0-3,8,3.05,3.05,0,0,0-.09,1.72,3.44,3.44,0,0,0,2.27,2.52,7.08,7.08,0,0,0-4.27.34,7.91,7.91,0,0,1,2.69,3,13.55,13.55,0,0,1-9.32-1.85A18.65,18.65,0,0,0,73,133.24a4.86,4.86,0,0,0-2.27-.09,1.5,1.5,0,0,0-1.18,1.63.51.51,0,0,0-.75.3,1.32,1.32,0,0,0,.17.9,21.91,21.91,0,0,1,1.43,3.58,9.51,9.51,0,0,0,.48,2.3,11.89,11.89,0,0,0,1.47,2.31c.56.71,1.34,1.32,1.83,2.06a8.68,8.68,0,0,0,.48.84,5.56,5.56,0,0,0,2.16,1.52c.14.06,1.07.43,1.18.32a10,10,0,0,1-5,2.84,15.55,15.55,0,0,0,3.12-.28c1-.2,1.94-.59,2.93-.84a2.66,2.66,0,0,1,1.8.15,24.42,24.42,0,0,0,5.42,1.78,17.72,17.72,0,0,0,5.58.17c7.87-1,14.22-6.61,19.24-12.07a47,47,0,0,0,11.39-22.89,25,25,0,0,0-.07-8.09,5.13,5.13,0,0,0-.35-1.5c-.59-1.34-2-2.82-3.51-1.88a3.77,3.77,0,0,0,.64-3.08,1.8,1.8,0,0,1-1.51.24,3,3,0,0,0,.42-2.58,4.21,4.21,0,0,0-1.28-1.67c-.44-.43-.81-.9-1.29-1.3a17.36,17.36,0,0,0-4.39-2.6,20.15,20.15,0,0,0-4.1-1.15c-.86-.14-1.75-.13-2.6-.3a2.66,2.66,0,0,0-1.11-.17,2.91,2.91,0,0,0-1.49,1,11.65,11.65,0,0,0-2.08-4.79,22.29,22.29,0,0,1-.25,6A3.19,3.19,0,0,0,98,95.16Z"/><path class="cls-27" d="M103.7,109.22a10.33,10.33,0,0,0-4,.32,30.59,30.59,0,0,0-3.68,1.57,4.62,4.62,0,0,0-.91.41A10.12,10.12,0,0,0,93,114.23a1.71,1.71,0,0,1-.52.55c-1.07.62-2.3-1.23-3.48-.82a6,6,0,0,1,.91,2.75.94.94,0,0,0-1.22.23,2.74,2.74,0,0,0-.52,1.24c-.26,1.09-.51,2.18-.77,3.27a21.39,21.39,0,0,1-1,2.43,21.18,21.18,0,0,0-.9,3.23c-.1.51-.18,1-.24,1.54a14.91,14.91,0,0,1-.09,1.5,9.66,9.66,0,0,0,.13,1.7,9.17,9.17,0,0,0,3.09,5.62,14.3,14.3,0,0,0,2.22,1.18,2.11,2.11,0,0,0,1.52.42c.36-.07.93-.38.91-.83a3.64,3.64,0,0,0,1,2.38,4,4,0,0,1,1.54-2.68,3.89,3.89,0,0,1,1.4-.72,4.86,4.86,0,0,0,1.7-1,33.22,33.22,0,0,0,3.52-3.19,36.24,36.24,0,0,0,3.85-4.54,19.22,19.22,0,0,0,2.61-4.6c.2-.57.54-1.07.72-1.64a3.14,3.14,0,0,0-1-3.39c1.13.14,2-1.18,1.86-2.31a9.7,9.7,0,0,0-1.1-2.46,10.66,10.66,0,0,0-.75-2A6.36,6.36,0,0,0,103.7,109.22Z"/><path class="cls-28" d="M64.13,103.47c1.43,1.85,3.86,2.53,6.11,3.11a4.49,4.49,0,0,0,2.05.19c.68-.15,1.13-.31,1.09-1A41.55,41.55,0,0,1,95.11,90.41c1.31-.38,2.76-.79,3.51-1.92,1.55-2.34-2.26-4.18-3.82-4.77-3.37-1.26-7.86-.49-11.15,1a46.93,46.93,0,0,0-9.08,5.83C70.12,93.92,65.91,98.16,64.13,103.47Z"/></g></g></svg>