<svg xmlns="http://www.w3.org/2000/svg" xmlns:xlink="http://www.w3.org/1999/xlink" viewBox="0 0 240 240"><defs><style>.cls-1{isolation:isolate;}.cls-2{fill:url(#Áåçûìÿííûé_ãðàäèåíò_21);}.cls-3{fill:#efffe8;}.cls-4{fill:url(#Áåçûìÿííûé_ãðàäèåíò_21-2);}.cls-14,.cls-15,.cls-16,.cls-17,.cls-18,.cls-22,.cls-5{mix-blend-mode:screen;}.cls-5{fill:url(#Áåçûìÿííûé_ãðàäèåíò_45);}.cls-6{fill:url(#Áåçûìÿííûé_ãðàäèåíò_21-3);}.cls-7{fill:url(#Áåçûìÿííûé_ãðàäèåíò_19);}.cls-8{fill:url(#Áåçûìÿííûé_ãðàäèåíò_21-4);}.cls-9{fill:url(#Áåçûìÿííûé_ãðàäèåíò_15);}.cls-10{fill:url(#Áåçûìÿííûé_ãðàäèåíò_15-2);}.cls-11{fill:url(#Áåçûìÿííûé_ãðàäèåíò_15-3);}.cls-12{fill:url(#Áåçûìÿííûé_ãðàäèåíò_15-4);}.cls-13{fill:url(#Áåçûìÿííûé_ãðàäèåíò_15-5);}.cls-14{fill:url(#Áåçûìÿííûé_ãðàäèåíò_20);}.cls-15{fill:url(#Áåçûìÿííûé_ãðàäèåíò_20-2);}.cls-16{fill:url(#Áåçûìÿííûé_ãðàäèåíò_20-3);}.cls-17{fill:url(#Áåçûìÿííûé_ãðàäèåíò_20-4);}.cls-18{fill:url(#Áåçûìÿííûé_ãðàäèåíò_20-5);}.cls-19{fill:url(#Áåçûìÿííûé_ãðàäèåíò_21-5);}.cls-20{fill:url(#Áåçûìÿííûé_ãðàäèåíò_271);}.cls-21{fill:url(#Áåçûìÿííûé_ãðàäèåíò_271-2);}.cls-22{fill:url(#Áåçûìÿííûé_ãðàäèåíò_45-2);}</style><linearGradient id="Áåçûìÿííûé_ãðàäèåíò_21" x1="79.36" y1="218.57" x2="131.24" y2="99.54" gradientUnits="userSpaceOnUse"><stop offset="0" stop-color="#47a4a6"/><stop offset="0.48" stop-color="#81c0bc"/><stop offset="0.97" stop-color="#b7dbd0"/></linearGradient><linearGradient id="Áåçûìÿííûé_ãðàäèåíò_21-2" x1="91.8" y1="84.29" x2="90.89" y2="51.47" xlink:href="#Áåçûìÿííûé_ãðàäèåíò_21"/><linearGradient id="Áåçûìÿííûé_ãðàäèåíò_45" x1="134.37" y1="33.37" x2="135.74" y2="130.86" gradientUnits="userSpaceOnUse"><stop offset="0" stop-color="#5ba87f"/><stop offset="1"/></linearGradient><linearGradient id="Áåçûìÿííûé_ãðàäèåíò_21-3" x1="58.33" y1="140.28" x2="95.29" y2="56.49" xlink:href="#Áåçûìÿííûé_ãðàäèåíò_21"/><linearGradient id="Áåçûìÿííûé_ãðàäèåíò_19" x1="82.7" y1="68.23" x2="71.11" y2="111.41" gradientUnits="userSpaceOnUse"><stop offset="0" stop-color="#324c73"/><stop offset="1" stop-color="#132547"/></linearGradient><linearGradient id="Áåçûìÿííûé_ãðàäèåíò_21-4" x1="77.27" y1="204.93" x2="164.9" y2="43.17" xlink:href="#Áåçûìÿííûé_ãðàäèåíò_21"/><linearGradient id="Áåçûìÿííûé_ãðàäèåíò_15" x1="89.27" y1="65.03" x2="48.89" y2="146.28" gradientUnits="userSpaceOnUse"><stop offset="0" stop-color="#435a7d"/><stop offset="1" stop-color="#192b4d"/></linearGradient><linearGradient id="Áåçûìÿííûé_ãðàäèåíò_15-2" x1="168.08" y1="75.75" x2="133.73" y2="126.27" gradientTransform="translate(-15.64 -1.56) rotate(-4.22)" xlink:href="#Áåçûìÿííûé_ãðàäèåíò_15"/><linearGradient id="Áåçûìÿííûé_ãðàäèåíò_15-3" x1="186.25" y1="88.09" x2="151.89" y2="138.62" gradientTransform="translate(-15.64 -1.56) rotate(-4.22)" xlink:href="#Áåçûìÿííûé_ãðàäèåíò_15"/><linearGradient id="Áåçûìÿííûé_ãðàäèåíò_15-4" x1="168.34" y1="75.92" x2="134" y2="126.43" gradientTransform="translate(-15.64 -1.56) rotate(-4.22)" xlink:href="#Áåçûìÿííûé_ãðàäèåíò_15"/><linearGradient id="Áåçûìÿííûé_ãðàäèåíò_15-5" x1="185.33" y1="87.5" x2="151" y2="137.98" gradientTransform="translate(-15.64 -1.56) rotate(-4.22)" xlink:href="#Áåçûìÿííûé_ãðàäèåíò_15"/><linearGradient id="Áåçûìÿííûé_ãðàäèåíò_20" x1="151.31" y1="89.65" x2="166.51" y2="89.65" gradientTransform="translate(-15.64 -1.56) rotate(-4.22)" gradientUnits="userSpaceOnUse"><stop offset="0" stop-color="#596b96"/><stop offset="1"/></linearGradient><linearGradient id="Áåçûìÿííûé_ãðàäèåíò_20-2" x1="144.46" y1="98.95" x2="161.5" y2="98.95" xlink:href="#Áåçûìÿííûé_ãðàäèåíò_20"/><linearGradient id="Áåçûìÿííûé_ãðàäèåíò_20-3" x1="167.61" y1="98.38" x2="183.54" y2="98.38" xlink:href="#Áåçûìÿííûé_ãðàäèåíò_20"/><linearGradient id="Áåçûìÿííûé_ãðàäèåíò_20-4" x1="160.38" y1="109.4" x2="177.91" y2="109.4" xlink:href="#Áåçûìÿííûé_ãðàäèåíò_20"/><linearGradient id="Áåçûìÿííûé_ãðàäèåíò_20-5" x1="71.93" y1="116.98" x2="76.07" y2="78.83" gradientTransform="matrix(1, 0, 0, 1, 0, 0)" xlink:href="#Áåçûìÿííûé_ãðàäèåíò_20"/><linearGradient id="Áåçûìÿííûé_ãðàäèåíò_21-5" x1="113.2" y1="113.77" x2="125.6" y2="76.58" xlink:href="#Áåçûìÿííûé_ãðàäèåíò_21"/><linearGradient id="Áåçûìÿííûé_ãðàäèåíò_271" x1="119.08" y1="70.34" x2="118.07" y2="107.17" gradientUnits="userSpaceOnUse"><stop offset="0.03" stop-color="#eb8971"/><stop offset="0.56" stop-color="#b56393"/><stop offset="1" stop-color="#8541b0"/></linearGradient><linearGradient id="Áåçûìÿííûé_ãðàäèåíò_271-2" x1="118.37" y1="85.09" x2="118.77" y2="112.61" xlink:href="#Áåçûìÿííûé_ãðàäèåíò_271"/><linearGradient id="Áåçûìÿííûé_ãðàäèåíò_45-2" x1="121.06" y1="81.75" x2="119.63" y2="102.14" xlink:href="#Áåçûìÿííûé_ãðàäèåíò_45"/></defs><g class="cls-1"><g id="layer_1" data-name="layer 1"><path class="cls-2" d="M213.75,138.34a11.37,11.37,0,0,1-7.55,9c-4.24,1.59-7.94.46-12.07-1.06-7-2.58-13.29-6.85-19.72-10.69a72.85,72.85,0,0,0-11.64-5.85c-.61-.24-1.24-.46-1.86-.66-2.15-.73-4.47-1-6.58-1.76a7.69,7.69,0,0,0-2.09-.65c-4.4-.51-9.42.53-13.75,1.32a83.08,83.08,0,0,0-15.89,4.7c-1,.42-2,.83-2.95,1.28a77.25,77.25,0,0,0-8.76,4.66,5.43,5.43,0,0,0-2.25,2.23c-2.17,4.26-4.49,8.39-6.36,12.82-2.2,5.24-4.56,10.57-8.36,14.83-1.91,2.12-4.17,3.34-6.36,5-1.91,1.51-4.1,1.84-6.55,2-7.34.55-14.62-2.32-20.66-6.4-11.15-7.53-19.82-17.63-28.46-27.92-2.85-3.41-3.86-6.09-4.8-10.31a43.12,43.12,0,0,1,.18-20.39C30.26,98.8,38.2,88.68,48.83,81a75.22,75.22,0,0,1,12.34-7.24c.6-.29,1.2-.56,1.81-.82a80.9,80.9,0,0,1,9.1-3.38,113.27,113.27,0,0,1,20.81-4.14,198.4,198.4,0,0,1,23.89-.93c.37,0,.74,0,1.11,0,1.89,0,3.77.08,5.65.14,15.63.5,31.51,1.42,45.47,9.36,1.93,1.09,3.82,2.28,5.66,3.54,9.8,6.68,18.3,15.45,25.54,24.8a77.18,77.18,0,0,1,9.24,15.23C212,123.24,215,131.68,213.75,138.34Z"/><path class="cls-3" d="M121.48,72.33l-1.14-.08a83.73,83.73,0,0,0-38.72,6.42l-.22.09-.22-.08A69.34,69.34,0,0,0,59.33,74.9v-.31c.6-.29,1.21-.56,1.81-.82a71.42,71.42,0,0,1,20.23,3.71A84.63,84.63,0,0,1,119.29,71c-.49-.86-.87-1.59-1.25-2.33-.51-1-1.75-2.92-2.51-4.17l.21-.13,1.11,0c.62,1,1.8,2.88,2.25,3.73s1,2,1.79,3.22Z"/><path class="cls-4" d="M121.79,71.48l-1.14-.08a83.73,83.73,0,0,0-38.72,6.41l-.22.1-.22-.08A60.57,60.57,0,0,0,61.17,74v-.3c.6-.29,1.2-.56,1.81-.82a61.19,61.19,0,0,1,18.7,3.72,84.63,84.63,0,0,1,37.92-6.48c-.49-.86-.87-1.6-1.25-2.33-.51-1-1-2-1.78-3.22l.21-.14c.37,0,.74,0,1.11,0,.62,1,1.07,1.92,1.52,2.78s1,2,1.79,3.22Z"/><path class="cls-5" d="M162.77,129.73c-.61-.24-1.24-.46-1.86-.67-2.15-.72-4.47-1-6.58-1.76a7.48,7.48,0,0,0-2.1-.63c-4.4-.52-9.41.52-13.73,1.32a81.53,81.53,0,0,0-15.9,4.69c-1.8-13.23-4.42-26.4-9.58-38.67-4.57-10.84-11.25-21-20.13-28.61a216.29,216.29,0,0,1,30.65-.77C139.17,65.14,155.05,66,169,74c1.93,1.09,3.82,2.28,5.66,3.54C181.27,93.55,173.46,113.64,162.77,129.73Z"/><path class="cls-6" d="M65.72,115.91a50.57,50.57,0,0,0,14.2.79c4.8-.48,10.09-2.31,11.4-6s-2.32-9-6.51-10.61a13.31,13.31,0,0,0-1.45-.33,40,40,0,0,0-4.4-.94,53.94,53.94,0,0,0-10.78-.61,26.82,26.82,0,0,0-9.78,2c-2.59,1.19-4.3,3.14-4.37,5.56a9.37,9.37,0,0,0,1.15,4.36C56.9,113.49,61.56,115.05,65.72,115.91Z"/><path class="cls-7" d="M81.33,110.69l.57-.25c3.24-1.53,5.94-5.23,5-9a8.14,8.14,0,0,0-3.74-4.73,18.18,18.18,0,0,0-5.79-2.09c-3.4-.73-7-1.09-10.41,0-2.56.84-5.26,2.56-6.52,5a6.44,6.44,0,0,0,.82,6.84c2.65,3.63,8.05,4.74,12.28,5.08A17.12,17.12,0,0,0,81.33,110.69Z"/><path class="cls-8" d="M213.75,138.34a11.34,11.34,0,0,1-7.56,9c-4.23,1.6-7.94.47-12.06-1-7-2.58-13.29-6.85-19.72-10.69a67.75,67.75,0,0,0-13.5-6.52c-2.15-.72-4.47-1-6.58-1.76a7.48,7.48,0,0,0-2.1-.63c-4.4-.52-9.41.52-13.73,1.32a82.14,82.14,0,0,0-18.86,6,79.64,79.64,0,0,0-8.75,4.66,5.43,5.43,0,0,0-2.25,2.23c-2.17,4.26-4.49,8.38-6.36,12.82-2.19,5.23-4.57,10.58-8.35,14.83-1.92,2.11-4.18,3.34-6.37,5-1.91,1.51-4.1,1.84-6.55,2-7.35.53-14.62-2.32-20.65-6.41-11.16-7.53-19.82-17.62-28.47-27.92-2.86-3.42-3.86-6.09-4.81-10.3a43.29,43.29,0,0,1,.19-20.4,162.43,162.43,0,0,0,13.51,23.4C46,141.46,52,148.64,59.47,153.86s16.79,8.36,25.86,7.2c6.68-.86,14.79-4.42,17.52-11.12a25.46,25.46,0,0,0,1.6-8.94c.15-4.94-.13-10.16,2.13-14.55s6.7-7.28,11.25-9.28a53.13,53.13,0,0,1,40.78-.67c7.22,2.91,13.7,7.4,20.29,11.6s13.43,8.18,21,10A31.8,31.8,0,0,0,213.75,138.34Z"/><path class="cls-9" d="M92.09,99.58c-1.43,2.52-4.36,4.39-7.57,5.6-7,2.62-15.55,2.26-21.6-.85-5-2.6-8.58-7.33-7.05-12.12a8.93,8.93,0,0,1,2.44-3.77C62,84.9,68.54,82.89,74.07,82.78c7.33-.15,14.2,3.27,17.39,8.26l.22.35A8.11,8.11,0,0,1,92.09,99.58Z"/><path class="cls-10" d="M157,79c0,.47-.09.89-.13,1.31-.2,1.71-1,3.31-2.85,3.63a5.43,5.43,0,0,1-3.35-1c-.8-.48-1.53-1-2.14-1.42a37.66,37.66,0,0,1-7.48-6.37,2.17,2.17,0,0,1-.83-1.7,2.08,2.08,0,0,1,1.26-1.49c2.43-1.15,7.59-.4,9.16-.23,1.75.17,3.79.16,5.12,1.52S157.21,77,157,79Z"/><path class="cls-11" d="M171.61,100.32c-.21.65-1,.87-1.67,1a41.57,41.57,0,0,1-10.45,1.17c-.79,0-1.78,0-2.79,0a6.43,6.43,0,0,1-3.79-1.07,4,4,0,0,1-1-4.78c.14-.31.26-.64.39-1,.86-1.94,2-4.07,4.22-4.53a2.57,2.57,0,0,1,.44-.08,5.57,5.57,0,0,1,2.23.32,22.11,22.11,0,0,1,3.09,1.4c1.33.64,5.4,2.41,7.71,4.4C171.22,98.19,172,99.3,171.61,100.32Z"/><path class="cls-12" d="M145.38,93.13c-3.23,1.5-5.31.4-7.29-2.24a22.82,22.82,0,0,1-2.65-4.38A5,5,0,0,1,134.9,83a2.3,2.3,0,0,1,.48-.8,3,3,0,0,1,2.93-.52c.1,0,.22.06.31.1,4.46,1.27,9.56,2.1,13.23,4.94a2.66,2.66,0,0,1,1.05,1.37C153.55,90.6,146.91,92.42,145.38,93.13Z"/><path class="cls-13" d="M175,88.7c-.66,2.62-3.66,1.92-5.67,1.81a55.28,55.28,0,0,1-8.32-1c-1.24-.24-2.56-1.07-2.67-2.31a3.08,3.08,0,0,1,.49-1.8c0-.1.1-.17.14-.27,1.86-3.22,5.33-7.17,9.58-5.79A9.31,9.31,0,0,1,172.38,82a11.67,11.67,0,0,1,2.4,4c0,.11.07.25.1.36A4.37,4.37,0,0,1,175,88.7Z"/><path class="cls-14" d="M157,79a4.26,4.26,0,0,1-2.75,2,5.69,5.69,0,0,1-3.08-.49A20,20,0,0,1,148,78.87a18.9,18.9,0,0,1-4.76-4.38c-.64-.82-1.17-1.71-1.75-2.57,2.43-1.15,7.59-.4,9.16-.23,1.75.17,3.79.16,5.12,1.52S157.21,77,157,79Z"/><path class="cls-15" d="M152.9,88.08c-1.56.51-6.3,2.46-6.83,2.52a8.86,8.86,0,0,1-6.73-2.18,2.25,2.25,0,0,0-.24-.21,11.39,11.39,0,0,1-2.7-3.89c-.31-.67-.57-1.32-.94-1.95l-.08-.18a3,3,0,0,1,2.93-.52c.1,0,.22.06.31.1,4.46,1.27,9.56,2.1,13.23,4.94A2.66,2.66,0,0,1,152.9,88.08Z"/><path class="cls-16" d="M174.88,86.43l-.13.15c-1.49,1.46-3.81,1.47-5.87,1.29a57,57,0,0,1-7.66-1.22,4.81,4.81,0,0,1-2.13-1,1.06,1.06,0,0,1-.26-.3c0-.1.1-.17.14-.27,1.86-3.22,5.33-7.17,9.58-5.79A9.31,9.31,0,0,1,172.38,82a11.67,11.67,0,0,1,2.4,4C174.82,86.18,174.85,86.32,174.88,86.43Z"/><path class="cls-17" d="M170,97.17a1.13,1.13,0,0,1-.1.54c-.3.65-.72,1.28-1.3.86a35.18,35.18,0,0,1-12.06.52,5.27,5.27,0,0,1-3.65-1.59,3.29,3.29,0,0,1-.58-1.84c.86-1.94,2-4.07,4.22-4.53a2.57,2.57,0,0,1,.44-.08c.72.08,1.47.19,2.23.32a22.11,22.11,0,0,1,3.09,1.4C163.65,93.41,167.72,95.18,170,97.17Z"/><path class="cls-18" d="M91.46,91c0,.19-.06.39-.1.59a9.92,9.92,0,0,1-4.82,6.68,16.22,16.22,0,0,1-8.15,2.06,24.51,24.51,0,0,1-16.31-6c-1.52-1.34-3.51-3.66-3.77-6C62,84.9,68.54,82.89,74.07,82.78,81.4,82.63,88.27,86.05,91.46,91Z"/><path class="cls-3" d="M136.11,68.52a4.17,4.17,0,0,0-.76-.63,1.72,1.72,0,0,0-.4-.41l-.34-.21a5.51,5.51,0,0,0-1.11-.49,8.24,8.24,0,0,0-2.14-.39,6.86,6.86,0,0,0-2.17.08,4.75,4.75,0,0,0-1.12.37,2.54,2.54,0,0,0-.8.83,1,1,0,0,0,.16,1.19,2.27,2.27,0,0,0,1,.67c.25.07.52.1.77.16a16.41,16.41,0,0,0,2.1.21l.41,0h.08c.43.06.85.06,1.28.08a7.24,7.24,0,0,0,.81,0l.4,0a2.05,2.05,0,0,0,.53-.14,6.66,6.66,0,0,0,1-.11A.73.73,0,0,0,136.11,68.52Z"/><path class="cls-3" d="M111.72,117.32a8.2,8.2,0,0,0-1.31.14,5.9,5.9,0,0,0-1.1.36c-.28.11-.56.22-.83.35a3.24,3.24,0,0,0-.71.5c-.31.26-.61.52-.9.8a8.53,8.53,0,0,0-1.69,2.06c-.22.44-.41.88-.59,1.33a3.46,3.46,0,0,0-.24,1.31,1,1,0,0,0,1.45.83,4.14,4.14,0,0,0,.61-.42c.13-.12.24-.26.36-.39s.51-.52.78-.76c.56-.51,1-1.11,1.58-1.62l.76-.64.08-.06a3.09,3.09,0,0,0,.43-.37c.13-.14.24-.28.37-.41s.51-.5.76-.76.5-.59.77-.86A.82.82,0,0,0,111.72,117.32Z"/><path class="cls-3" d="M33.64,110l-.06-.35c0-.05,0-.11,0-.16a.77.77,0,0,1,0-.1,5.58,5.58,0,0,0-.19-1c-.07-.26-.13-.52-.2-.77a2.61,2.61,0,0,0-.38-.72.5.5,0,0,0-.78-.1,2.37,2.37,0,0,0-.53.82c-.08.25-.15.51-.21.77a6.25,6.25,0,0,0-.1,1.93,4.62,4.62,0,0,0,.1,1,5.77,5.77,0,0,0,.47,1,8.65,8.65,0,0,0,.91,1.48c.36.46,1,0,1-.43s0-1.06.06-1.59c0-.27.08-.55.08-.82A6.18,6.18,0,0,0,33.64,110Z"/><path class="cls-19" d="M108,98.91a3.91,3.91,0,0,0,2.07,2.16c4.19,2.21,12,2.14,16.31.05a4.58,4.58,0,0,0,2.42-2.48c1-3-2.9-4-5.17-4.87a6.87,6.87,0,0,0-2.52-.4,45.79,45.79,0,0,0-6.73.36c-2,.31-4.38.89-5.67,2.48A2.89,2.89,0,0,0,108,98.91Z"/><path class="cls-20" d="M128.67,95.41a5.31,5.31,0,0,1-1,3.29c-1.66,2.31-5.69,2.69-8.26,2.84-2.83.17-5.86.08-8.34-1.49-2.17-1.37-3.54-4.08-2.73-6.32a4.12,4.12,0,0,1,1.2-1.74c3.68-3.16,9.57-3.45,14-2a8.64,8.64,0,0,1,3.92,2.29A4.77,4.77,0,0,1,128.67,95.41Z"/><path class="cls-21" d="M128.67,95.41c-1.07,2.34-3.9,3-6.26,3.22h-.22c-4,.25-11.92-.44-13.85-4.91a4.12,4.12,0,0,1,1.2-1.74c3.68-3.16,9.57-3.45,14-2a8.64,8.64,0,0,1,3.92,2.29A4.77,4.77,0,0,1,128.67,95.41Z"/><path class="cls-22" d="M117.06,90.33a1.75,1.75,0,0,0-.6,1.77c.31,1,1.59,1.33,2.65,1.38a16.65,16.65,0,0,0,3.92-.31,1.66,1.66,0,0,0,1.14-.61c.38-.63-.17-1.41-.76-1.83a6.67,6.67,0,0,0-4.93-1A2.72,2.72,0,0,0,117.06,90.33Z"/></g></g></svg>