<svg xmlns="http://www.w3.org/2000/svg" xmlns:xlink="http://www.w3.org/1999/xlink" viewBox="0 0 240 240"><defs><style>.cls-1{isolation:isolate;}.cls-2{fill:url(#Áåçûìÿííûé_ãðàäèåíò_15);}.cls-3{fill:url(#Áåçûìÿííûé_ãðàäèåíò_184);}.cls-14,.cls-15,.cls-16,.cls-17,.cls-20,.cls-21,.cls-22,.cls-29,.cls-31,.cls-33,.cls-35,.cls-4,.cls-9{mix-blend-mode:screen;}.cls-4{fill:url(#Áåçûìÿííûé_ãðàäèåíò_32);}.cls-5{fill:url(#Áåçûìÿííûé_ãðàäèåíò_184-2);}.cls-6{fill:url(#Áåçûìÿííûé_ãðàäèåíò_184-3);}.cls-7{fill:url(#Áåçûìÿííûé_ãðàäèåíò_15-2);}.cls-8{fill:url(#Áåçûìÿííûé_ãðàäèåíò_15-3);}.cls-9{fill:url(#Áåçûìÿííûé_ãðàäèåíò_49);}.cls-10{fill:url(#Áåçûìÿííûé_ãðàäèåíò_15-4);}.cls-11{fill:url(#Áåçûìÿííûé_ãðàäèåíò_15-5);}.cls-12{fill:url(#Áåçûìÿííûé_ãðàäèåíò_15-6);}.cls-13{fill:url(#Áåçûìÿííûé_ãðàäèåíò_15-7);}.cls-14{fill:url(#Áåçûìÿííûé_ãðàäèåíò_49-2);}.cls-15{fill:url(#Áåçûìÿííûé_ãðàäèåíò_49-3);}.cls-16{fill:url(#Áåçûìÿííûé_ãðàäèåíò_49-4);}.cls-17{fill:url(#Áåçûìÿííûé_ãðàäèåíò_49-5);}.cls-18{fill:url(#Áåçûìÿííûé_ãðàäèåíò_184-4);}.cls-19{fill:url(#Áåçûìÿííûé_ãðàäèåíò_215);}.cls-20{fill:url(#Áåçûìÿííûé_ãðàäèåíò_32-2);}.cls-21{fill:url(#Áåçûìÿííûé_ãðàäèåíò_32-3);}.cls-22{fill:url(#Áåçûìÿííûé_ãðàäèåíò_32-4);}.cls-23{fill:#fff8e6;}.cls-24{fill:url(#Áåçûìÿííûé_ãðàäèåíò_19);}.cls-25{fill:url(#Áåçûìÿííûé_ãðàäèåíò_19-2);}.cls-26{fill:url(#Áåçûìÿííûé_ãðàäèåíò_19-3);}.cls-27{fill:url(#Áåçûìÿííûé_ãðàäèåíò_184-5);}.cls-28{fill:url(#Áåçûìÿííûé_ãðàäèåíò_184-6);}.cls-29{fill:url(#Áåçûìÿííûé_ãðàäèåíò_16);}.cls-30{fill:#efffe8;}.cls-31{fill:url(#Áåçûìÿííûé_ãðàäèåíò_16-2);}.cls-32{fill:url(#Áåçûìÿííûé_ãðàäèåíò_184-7);}.cls-33{fill:url(#Áåçûìÿííûé_ãðàäèåíò_32-5);}.cls-34{fill:url(#Áåçûìÿííûé_ãðàäèåíò_184-8);}.cls-35{fill:url(#Áåçûìÿííûé_ãðàäèåíò_32-6);}</style><linearGradient id="Áåçûìÿííûé_ãðàäèåíò_15" x1="121.71" y1="184.8" x2="121.31" y2="124.55" gradientUnits="userSpaceOnUse"><stop offset="0" stop-color="#435a7d"/><stop offset="1" stop-color="#192b4d"/></linearGradient><linearGradient id="Áåçûìÿííûé_ãðàäèåíò_184" x1="120.26" y1="90.57" x2="119.88" y2="170.51" gradientUnits="userSpaceOnUse"><stop offset="0.03" stop-color="#d46693"/><stop offset="0.69" stop-color="#9e569e"/><stop offset="1" stop-color="#824ea3"/></linearGradient><linearGradient id="Áåçûìÿííûé_ãðàäèåíò_32" x1="120.33" y1="155.23" x2="120.78" y2="101.42" gradientUnits="userSpaceOnUse"><stop offset="0" stop-color="#a8665b"/><stop offset="1"/></linearGradient><linearGradient id="Áåçûìÿííûé_ãðàäèåíò_184-2" x1="120.67" y1="72.02" x2="120.67" y2="133.45" xlink:href="#Áåçûìÿííûé_ãðàäèåíò_184"/><linearGradient id="Áåçûìÿííûé_ãðàäèåíò_184-3" x1="89.13" y1="96.81" x2="94.06" y2="119.09" xlink:href="#Áåçûìÿííûé_ãðàäèåíò_184"/><linearGradient id="Áåçûìÿííûé_ãðàäèåíò_15-2" x1="91.45" y1="104.67" x2="96.16" y2="126.09" xlink:href="#Áåçûìÿííûé_ãðàäèåíò_15"/><linearGradient id="Áåçûìÿííûé_ãðàäèåíò_15-3" x1="96.51" y1="126.23" x2="87.85" y2="90.53" xlink:href="#Áåçûìÿííûé_ãðàäèåíò_15"/><linearGradient id="Áåçûìÿííûé_ãðàäèåíò_49" x1="97.23" y1="128.11" x2="94.26" y2="114.79" gradientUnits="userSpaceOnUse"><stop offset="0" stop-color="#596278"/><stop offset="1"/></linearGradient><linearGradient id="Áåçûìÿííûé_ãðàäèåíò_15-4" x1="146.11" y1="103.79" x2="146.52" y2="119.14" xlink:href="#Áåçûìÿííûé_ãðàäèåíò_15"/><linearGradient id="Áåçûìÿííûé_ãðàäèåíò_15-5" x1="1466.43" y1="681" x2="1466.83" y2="696.35" gradientTransform="translate(1612.83 810.94) rotate(180)" xlink:href="#Áåçûìÿííûé_ãðàäèåíò_15"/><linearGradient id="Áåçûìÿííûé_ãðàäèåíò_15-6" x1="149.26" y1="107.23" x2="153.14" y2="121.26" xlink:href="#Áåçûìÿííûé_ãðàäèåíò_15"/><linearGradient id="Áåçûìÿííûé_ãðàäèåíò_15-7" x1="138.72" y1="110.15" x2="142.6" y2="124.18" xlink:href="#Áåçûìÿííûé_ãðàäèåíò_15"/><linearGradient id="Áåçûìÿííûé_ãðàäèåíò_49-2" x1="138.1" y1="107.04" x2="141.38" y2="120.49" xlink:href="#Áåçûìÿííûé_ãðàäèåíò_49"/><linearGradient id="Áåçûìÿííûé_ãðàäèåíò_49-3" x1="144.1" y1="104.19" x2="146.96" y2="112.66" xlink:href="#Áåçûìÿííûé_ãðàäèåíò_49"/><linearGradient id="Áåçûìÿííûé_ãðàäèåíò_49-4" x1="148.24" y1="105.83" x2="153.24" y2="120.31" xlink:href="#Áåçûìÿííûé_ãðàäèåíò_49"/><linearGradient id="Áåçûìÿííûé_ãðàäèåíò_49-5" x1="143.53" y1="112.73" x2="146.7" y2="126.82" xlink:href="#Áåçûìÿííûé_ãðàäèåíò_49"/><linearGradient id="Áåçûìÿííûé_ãðàäèåíò_184-4" x1="119.17" y1="126.09" x2="120.42" y2="91.98" xlink:href="#Áåçûìÿííûé_ãðàäèåíò_184"/><linearGradient id="Áåçûìÿííûé_ãðàäèåíò_215" x1="120.12" y1="110.51" x2="120.71" y2="89.58" gradientUnits="userSpaceOnUse"><stop offset="0" stop-color="#8ae3dd"/><stop offset="1" stop-color="#2bb4d6"/></linearGradient><linearGradient id="Áåçûìÿííûé_ãðàäèåíò_32-2" x1="108.9" y1="68.73" x2="118.15" y2="114.51" xlink:href="#Áåçûìÿííûé_ãðàäèåíò_32"/><linearGradient id="Áåçûìÿííûé_ãðàäèåíò_32-3" x1="71.58" y1="83.14" x2="64.11" y2="111.34" xlink:href="#Áåçûìÿííûé_ãðàäèåíò_32"/><linearGradient id="Áåçûìÿííûé_ãðàäèåíò_32-4" x1="163.45" y1="89.11" x2="187.38" y2="112.73" xlink:href="#Áåçûìÿííûé_ãðàäèåíò_32"/><linearGradient id="Áåçûìÿííûé_ãðàäèåíò_19" x1="121.01" y1="-7.1" x2="117.04" y2="516.97" gradientUnits="userSpaceOnUse"><stop offset="0" stop-color="#324c73"/><stop offset="1" stop-color="#132547"/></linearGradient><linearGradient id="Áåçûìÿííûé_ãðàäèåíò_19-2" x1="104.94" y1="99.52" x2="136.81" y2="211.24" xlink:href="#Áåçûìÿííûé_ãðàäèåíò_19"/><linearGradient id="Áåçûìÿííûé_ãðàäèåíò_19-3" x1="129.59" y1="5.78" x2="122.58" y2="106.25" xlink:href="#Áåçûìÿííûé_ãðàäèåíò_19"/><linearGradient id="Áåçûìÿííûé_ãðàäèåíò_184-5" x1="25.76" y1="21.52" x2="69.29" y2="228.7" xlink:href="#Áåçûìÿííûé_ãðàäèåíò_184"/><linearGradient id="Áåçûìÿííûé_ãðàäèåíò_184-6" x1="170.8" y1="-8.96" x2="214.34" y2="198.22" xlink:href="#Áåçûìÿííûé_ãðàäèåíò_184"/><linearGradient id="Áåçûìÿííûé_ãðàäèåíò_16" x1="89.89" y1="-16.41" x2="124.52" y2="62.75" gradientUnits="userSpaceOnUse"><stop offset="0" stop-color="#445b91"/><stop offset="1"/></linearGradient><linearGradient id="Áåçûìÿííûé_ãðàäèåíò_16-2" x1="213.56" y1="256.84" x2="98.05" y2="148.59" xlink:href="#Áåçûìÿííûé_ãðàäèåíò_16"/><linearGradient id="Áåçûìÿííûé_ãðàäèåíò_184-7" x1="63.69" y1="2.24" x2="48.96" y2="130.83" xlink:href="#Áåçûìÿííûé_ãðàäèåíò_184"/><linearGradient id="Áåçûìÿííûé_ãðàäèåíò_32-5" x1="55.83" y1="11.28" x2="38.67" y2="139.69" xlink:href="#Áåçûìÿííûé_ãðàäèåíò_32"/><linearGradient id="Áåçûìÿííûé_ãðàäèåíò_184-8" x1="174.8" y1="19.61" x2="200.1" y2="129.96" xlink:href="#Áåçûìÿííûé_ãðàäèåíò_184"/><linearGradient id="Áåçûìÿííûé_ãðàäèåíò_32-6" x1="159.43" y1="8.43" x2="207.1" y2="128.92" xlink:href="#Áåçûìÿííûé_ãðàäèåíò_32"/></defs><g class="cls-1"><g id="layer_1" data-name="layer 1"><path class="cls-2" d="M86,154.84c12.88,15.76,37.58,21.9,56.3,11.82,19.65-10.58,32.7-40.41,14.32-58-5.7-5.46-13.49-8.16-21.19-9.88-11.58-2.58-23.94-3.23-35.11.76-8.26,3-15.75,8.76-20,16.51-.91,1.66-2.12,3.65-2.26,5.58,0,.55,0,1.07-.1,1.63-.19,1.25-.38,2.49-.48,3.75a41.4,41.4,0,0,0,.07,7.55A37.61,37.61,0,0,0,86,154.84Z"/><path class="cls-3" d="M191.85,116.43A79.1,79.1,0,0,1,186.77,140c-.44-2.38,0-4.84-.13-7.25s-.89-5-2.95-6.32c-2.59-1.61-6-.42-8.71.93-9.35,4.54-17.19,10.51-27.31,17.07a61.38,61.38,0,0,1-19.47,8.39,33,33,0,0,1-10.12,1,53.64,53.64,0,0,1-10.87-2.61,59.56,59.56,0,0,1-14.6-6.8c-10.12-6.56-18-12.53-27.31-17.07-2.74-1.35-6.11-2.54-8.71-.93-2.06,1.27-2.84,3.91-3,6.32s.31,4.87-.13,7.25a70.23,70.23,0,0,1-3.86-13.87,87.33,87.33,0,0,1-1.22-9.65c-.38-5.38,1.42-12,3.78-18a123,123,0,0,1,9-18s-2.26,8.53,0,14c2.46,5.87,8.09,6.86,14,8.08,9.72,2,17.15-8.83,26.47-14.21a36.8,36.8,0,0,1,37.06,0c9.32,5.38,16.75,16.23,26.47,14.21,5.89-1.22,11.51-2.21,14-8.08,2.26-5.44,0-14,0-14a125.2,125.2,0,0,1,7.6,14.69s0,0,0,.05c1,2.23,1.9,4.6,2.7,7C191.07,107.09,192.16,112.14,191.85,116.43Z"/><path class="cls-4" d="M189.43,102.14a22.37,22.37,0,0,1-1.62,1.74c-3.48,3.37-7.83,5.67-12.19,7.78-20.12,9.78-42.13,16.64-64.49,16l-2.91-.13A90.6,90.6,0,0,1,84.87,123a83.13,83.13,0,0,1-10.93-4.6,73.24,73.24,0,0,1-10-6.15A67.89,67.89,0,0,1,55,104.56a10.24,10.24,0,0,1-2.67-3.75,5.55,5.55,0,0,1-.13-2.4,123,123,0,0,1,9-18s-2.26,8.53,0,14c2.46,5.87,8.09,6.86,14,8.08,9.72,2,17.15-8.83,26.47-14.21a36.8,36.8,0,0,1,37.06,0c9.32,5.38,16.75,16.23,26.47,14.21,5.89-1.22,11.51-2.21,14-8.08,2.26-5.44,0-14,0-14a125.2,125.2,0,0,1,7.6,14.69s0,0,0,.05C187.7,97.38,188.63,99.75,189.43,102.14Z"/><path class="cls-5" d="M191.85,116.43A79.1,79.1,0,0,1,186.77,140c-.44-2.38,0-4.84-.13-7.25s-.89-5-2.95-6.32c-2.59-1.61-6-.42-8.71.93-9.35,4.54-17.19,10.51-27.31,17.07a61.38,61.38,0,0,1-19.47,8.39,33,33,0,0,1-10.12,1,53.64,53.64,0,0,1-10.87-2.61,59.56,59.56,0,0,1-14.6-6.8c-10.12-6.56-18-12.53-27.31-17.07-2.74-1.35-6.11-2.54-8.71-.93-2.06,1.27-2.84,3.91-3,6.32s.31,4.87-.13,7.25a70.23,70.23,0,0,1-3.86-13.87,66.3,66.3,0,0,1,3.9-28.5,29.18,29.18,0,0,0-.32,14.47c.68,2.89,1.6,6.34,4.12,8.21,3.18,2.35,7.94,1.89,11.52,3.43,4.87,2.12,9.27,5.74,13.58,8.82a101.8,101.8,0,0,0,15.91,9.9A54.08,54.08,0,0,0,148,139.92c5.34-3.19,10.08-7.26,15-11.06a72.08,72.08,0,0,1,10.94-7.26c1.69-.87,3.87-2.24,5.76-2.52,4-.6,7.32-.89,7.39-5.86a90.45,90.45,0,0,0-1.06-15q-.51-3.3-1.27-6.56c.66,1.13,1.31,2.26,2,3.41,0,0,0,0,0,.05C189.7,102,192.3,110.06,191.85,116.43Z"/><path class="cls-6" d="M103.16,118.65c0,4.65-4.12,8.42-9.2,8.42s-9.2-3.77-9.2-8.42,4.12-8.42,9.2-8.42S103.16,114,103.16,118.65Z"/><path class="cls-7" d="M90.36,124.77a9.06,9.06,0,1,0,1.85-17.15,8.85,8.85,0,0,0-3.89,1.92A9.5,9.5,0,0,0,85.7,113a8.45,8.45,0,0,0-.66,4.3,9.33,9.33,0,0,0,1.53,4.17,9.06,9.06,0,0,0,3.29,3C90,124.61,90.19,124.69,90.36,124.77Z"/><path class="cls-8" d="M90.72,122.08a7.61,7.61,0,1,0,1.55-14.4A7.61,7.61,0,0,0,89,109.29a8.16,8.16,0,0,0-2.2,2.94,7.23,7.23,0,0,0-.55,3.62,7.87,7.87,0,0,0,1.29,3.5,7.62,7.62,0,0,0,2.76,2.53Z"/><path class="cls-9" d="M99.72,118.56a5.77,5.77,0,0,0,.62-1.18,3.16,3.16,0,0,0-.06-2.72,1.84,1.84,0,0,0-1.73-.93,4.13,4.13,0,0,0-1.82,1,12.29,12.29,0,0,1-4.61,2c-1.09.24-2.79.49-3,2s1.6,2.45,2.83,2.9C94.92,122.76,98.07,121.08,99.72,118.56Z"/><path class="cls-10" d="M147.18,115c1.47-1.2,3.24-3.57,3.36-5.54a1.59,1.59,0,0,0-.22-.93,1.7,1.7,0,0,0-1.24-.76,11.48,11.48,0,0,0-6.26.15,1.15,1.15,0,0,0-.85,1.25,7.94,7.94,0,0,0,1.43,3.55c.51.78,1.38,2.27,2.29,2.62A1.43,1.43,0,0,0,147.18,115Z"/><path class="cls-11" d="M145.32,118.73c-1.47,1.2-3.23,3.58-3.35,5.55a1.55,1.55,0,0,0,.21.92,1.75,1.75,0,0,0,1.25.77,11.57,11.57,0,0,0,6.26-.15,1.14,1.14,0,0,0,.84-1.26,7.86,7.86,0,0,0-1.42-3.55c-.51-.77-1.38-2.26-2.29-2.62A1.47,1.47,0,0,0,145.32,118.73Z"/><path class="cls-12" d="M148.12,117.79c1.2,1.47,3.58,3.24,5.55,3.35a1.55,1.55,0,0,0,.92-.21,1.73,1.73,0,0,0,.77-1.25,11.54,11.54,0,0,0-.15-6.25,1.16,1.16,0,0,0-1.26-.85A8,8,0,0,0,150.4,114c-.77.51-2.26,1.38-2.62,2.29A1.46,1.46,0,0,0,148.12,117.79Z"/><path class="cls-13" d="M144.38,115.93c-1.19-1.47-3.57-3.23-5.54-3.35a1.6,1.6,0,0,0-.93.21,1.77,1.77,0,0,0-.76,1.25,11.48,11.48,0,0,0,.15,6.26,1.14,1.14,0,0,0,1.25.84,7.93,7.93,0,0,0,3.55-1.42c.78-.52,2.27-1.38,2.62-2.29A1.43,1.43,0,0,0,144.38,115.93Z"/><path class="cls-14" d="M138.06,118.76c1.21.64,3-.16,4.16-.62s2.18-1.24,1.48-2.49a5.2,5.2,0,0,0-.87-1.11,6.93,6.93,0,0,0-3.75-1.86c-2.21-.26-2.34,3-2.07,4.47A2.18,2.18,0,0,0,138.06,118.76Z"/><path class="cls-15" d="M142.15,109.78a2.76,2.76,0,0,0,.24.66,7,7,0,0,0,.8,1.16,3.52,3.52,0,0,0,2.65,1.75c.7,0,1.59-.87,2-1.33a6.27,6.27,0,0,0,1.38-2.17,2.53,2.53,0,0,0,.2-1c-.07-1.88-2.78-1.41-4-1.37C144.11,107.55,141.72,107.79,142.15,109.78Z"/><path class="cls-16" d="M148.69,117.35c1.64,1.2,5.41,2.71,6.13-.31a7.63,7.63,0,0,0,.06-2.61c-.29-2.13-2-1.65-3.37-1a8.56,8.56,0,0,0-2.42,1.51C148.45,115.52,147.79,116.69,148.69,117.35Z"/><path class="cls-17" d="M142.94,121.5c-.51,1-.71,2.18.77,2.4a20.93,20.93,0,0,0,3.54.14,1.5,1.5,0,0,0,1.49-.72,2.16,2.16,0,0,0,.14-1c-.1-2-1.83-5.41-4-3.24a17.17,17.17,0,0,0-1.48,1.7A8.36,8.36,0,0,0,142.94,121.5Z"/><path class="cls-18" d="M133.8,97.42a37.8,37.8,0,0,0-27.16.21c3.54,4.69,8.91,10.7,14,13.62C125.56,107.65,130.64,102.82,133.8,97.42Z"/><path class="cls-19" d="M132.26,98.62a32.81,32.81,0,0,0-23.61.18c3.08,4.08,7.75,9.3,12.14,11.84A42.13,42.13,0,0,0,132.26,98.62Z"/><path class="cls-20" d="M86.4,102.52a36,36,0,0,0,11.3-5.26,41,41,0,0,1,18.74-7.74,39.6,39.6,0,0,1,4.21-.35,42,42,0,0,1,16.55,2.88c5.16,2,9.59,5.44,14.41,8.15-2.81-3.71-7.15-7-10.94-9.54-.43-.29-.87-.57-1.31-.85a35.09,35.09,0,0,0-29.39-4,39.35,39.35,0,0,0-13.43,7C92,96.44,88,100.24,82.89,103.07a13.93,13.93,0,0,1-2.16.87l-1,.34C82,103.69,84.25,103.15,86.4,102.52Z"/><path class="cls-21" d="M74.91,103.35a30.79,30.79,0,0,1-9-2.43C63.07,99.51,60.62,97,60,94a10.66,10.66,0,0,0,4.15,9.2C67,105.32,71.54,104.53,74.91,103.35Z"/><path class="cls-22" d="M180.86,90.94a9.86,9.86,0,0,1-2.55,7.6,14.61,14.61,0,0,1-7,4.15,37.6,37.6,0,0,1-8.6,1,51.79,51.79,0,0,0,13.51-.85,8.32,8.32,0,0,0,4.71-2.31A6.08,6.08,0,0,0,182.14,96,21.39,21.39,0,0,0,180.86,90.94Z"/><path class="cls-23" d="M102.79,89.25a.45.45,0,0,0-.46-.16c-.32.13-.65.21-1,.34a8.09,8.09,0,0,0-1.21.5c-.15.09-.32.18-.46.28a2.37,2.37,0,0,0-.3.23l0,0-.12.09a3.28,3.28,0,0,0-.64.53,1.34,1.34,0,0,0-.23.55.57.57,0,0,0-.05.61.51.51,0,0,0,.42.24l.05,0,.16.06a1.54,1.54,0,0,0,.42.07,2,2,0,0,0,.73-.2,6.73,6.73,0,0,0,.73-.32,4.87,4.87,0,0,0,.47-.32,2.47,2.47,0,0,0,.54-.53c.15-.19.3-.38.44-.58a6.14,6.14,0,0,0,.54-1A.46.46,0,0,0,102.79,89.25Z"/><path class="cls-23" d="M180.1,97.12a1.67,1.67,0,0,0-.44.17l-.37.21-.36.19a3.72,3.72,0,0,0-.46.43l-.31.3a3.31,3.31,0,0,0-.3.34l-.27.32a.89.89,0,0,0-.24.63.76.76,0,0,1,0,.15.55.55,0,0,0,.39.5,1,1,0,0,0,.79,0,2.74,2.74,0,0,0,.36-.23,3.73,3.73,0,0,0,.51-.4l.31-.32a3.72,3.72,0,0,0,.41-.48,2.63,2.63,0,0,0,.22-.55l.14-.39a1.61,1.61,0,0,0,.06-.49A.36.36,0,0,0,180.1,97.12Z"/><path class="cls-24" d="M216.11,106.28a103.94,103.94,0,0,0-10.74-36.2,87,87,0,0,0-8.3-13.19,83.3,83.3,0,0,0-22.72-20.65,109.1,109.1,0,0,0-49.41-15.62c-19-1.28-39.58,4.41-56.06,13.71C43.67,48.55,28.69,73.52,24.46,101.85c-.22,1.47-.41,3-.58,4.43a134.27,134.27,0,0,0-.37,28.34c1.83,19.14,8.32,37.54,21.64,52.26,13.48,14.9,32,24.34,51.25,29.45a87.52,87.52,0,0,0,45.32.47A123.35,123.35,0,0,0,168,207.1c21.62-11,38.14-29.47,45-52.94.14-.52.29-1,.44-1.54C217.55,137.58,217.87,121.7,216.11,106.28ZM51,103.11A79.59,79.59,0,0,1,62,74.61a70.38,70.38,0,0,1,25-23.8c16-8.94,31.94-11.7,49.58-6.74a70.77,70.77,0,0,1,46.81,40.59,86.05,86.05,0,0,1-1.21,70.75c-.42.93-.89,1.84-1.37,2.74A70.59,70.59,0,0,1,166.34,177c-12.79,11.77-29.51,17.38-46.2,17.26-20.87-.14-41.7-9.23-54.77-26.42-.81-1.06-1.58-2.15-2.33-3.27a75.23,75.23,0,0,1-4-6.74,81.79,81.79,0,0,1-8.23-24.62A88.16,88.16,0,0,1,51,103.11Z"/><path class="cls-25" d="M213.43,152.62c-.15.52-.3,1-.44,1.54-6.88,23.47-23.4,41.91-45,52.94a123.35,123.35,0,0,1-26.25,9.7,87.52,87.52,0,0,1-45.32-.47c-19.24-5.11-37.77-14.55-51.25-29.45-13.32-14.72-19.81-33.12-21.64-52.26a32.12,32.12,0,0,1,9.91-3.52,28.69,28.69,0,0,1,17.38,2.15A81.79,81.79,0,0,0,59,157.87a19.43,19.43,0,0,0-21.19,10.32c19.69,25.58,51.55,43.46,83.83,43.58s64.57-17.42,80.24-45.64c-5.3-5.49-13.61-9.36-21.11-8,.48-.9.95-1.81,1.37-2.74,6.76-7.74,17.79-10.67,27-5.69A26.08,26.08,0,0,1,213.43,152.62Z"/><path class="cls-26" d="M205.37,70.08a11.69,11.69,0,0,1-1.09,3.63c-2.05,4-6.1,6.47-10.24,8.13a48.74,48.74,0,0,1-10.66,2.82,70.77,70.77,0,0,0-46.81-40.59c-17.64-5-33.59-2.2-49.58,6.74a70.38,70.38,0,0,0-25,23.8,27.59,27.59,0,0,1-10.33-3.34c-4.36-2.66-7.22-7.74-5.86-12.67a41.3,41.3,0,0,1,17.72,3.26l.17-.09a32.06,32.06,0,0,0,3.54-3.13c.4-.33.86-.53,1.27-.84,1-.77,1.92-1.68,2.9-2.49q2.17-1.79,4.47-3.42a75.7,75.7,0,0,1,87.21-1.16,96.58,96.58,0,0,1,10,8,7.67,7.67,0,0,0,2.65,1.47c1.61.56,3.17,0,4.71-.5a54,54,0,0,1,16.64-2.78A87,87,0,0,1,205.37,70.08Z"/><path class="cls-27" d="M67.59,78.66c-9.8,8.94-15.1,23.61-15.38,36.67s5,26,10.25,38c-1,1.35-2.41,2.84-3.35,4.19-4-4.8-10.82-4.74-16.67-2.37s-8.86,7-9.55,13.17c-2.56.2-2.39.18-4.17-1.07l-.5-.34c-15-35.49-13-77.34,9.18-106.75.17-.24.34-.46.53-.7a21.72,21.72,0,0,1,20.43,1.42,20.57,20.57,0,0,1,8.83,12.92c.12.56.21,1.12.28,1.69A18.57,18.57,0,0,1,67.59,78.66Z"/><path class="cls-28" d="M212,166.92c-2.26,1.59-1.82,1.63-4.53,1.41-.66-6.17-3.58-10.82-9.27-13.17s-12.35-2.43-16.2,2.37c-.92-1.35-2.34-2.84-3.26-4.19,5.05-12.05,10.23-25,10-38-.27-12.83-5.24-27.21-14.45-36.19l-.49-.48a4.7,4.7,0,0,1,0-.53,20.17,20.17,0,0,1,28.84-18.66c.58.78,1.16,1.57,1.71,2.36a88.25,88.25,0,0,1,8.31,14.73C224.9,104,224.13,137.61,212,166.92Z"/><path class="cls-29" d="M125.89,28.32C100.73,25.62,74.78,34.54,55.52,51c-1.05-.31-1.83,0-2.88-.26,6-8.11,14.62-13.86,23.74-18.09a102.09,102.09,0,0,1,107.5,13.56c-1.07.81-2.13,1.35-3.2,2.16C165.22,37.74,144.53,30.32,125.89,28.32Z"/><path class="cls-30" d="M91.4,29a25,25,0,0,0-2.86-.43,8.74,8.74,0,0,0-3.13.41,13.73,13.73,0,0,0-2.85,1.19,5.52,5.52,0,0,0-1.21,1,1.9,1.9,0,0,0-.58,1.34.34.34,0,0,0,.16.29,3.06,3.06,0,0,0,.55.26,2.22,2.22,0,0,0,.85,0,8.34,8.34,0,0,0,1.23-.23c.89-.29,1.76-.6,2.66-.86A24.87,24.87,0,0,0,88.87,31a19,19,0,0,1,2.53-.89C92,30,92,29.05,91.4,29Z"/><path class="cls-31" d="M179,165.06c-11.76,20.32-33.92,31.26-57.44,31.56s-49.7-12.84-61.31-33.3c3.75,14.54,15.53,26.05,29.25,32.16s29.34,7,44.17,4.64c9.9-1.55,19.73-4.54,28.11-10.05S176.44,174.58,179,165.06Z"/><path class="cls-30" d="M164.3,183.74a7.33,7.33,0,0,0-.91.39,5.84,5.84,0,0,0-.85.44c-.56.34-1.13.64-1.68,1s-1.09.67-1.64,1c-.28.17-.53.37-.8.54a4,4,0,0,0-.4.27,1.94,1.94,0,0,0-.41.4s-.17.23-.07.09a.93.93,0,0,0,.65,1.56,2.7,2.7,0,0,0,1.16-.12,8,8,0,0,0,1.16-.42,13.37,13.37,0,0,0,1.75-1,6.82,6.82,0,0,0,2.78-3.4A.6.6,0,0,0,164.3,183.74Z"/><path class="cls-32" d="M67.59,78.66c-9.8,8.94-15.1,23.61-15.38,36.67s5,26,10.25,38c-1,1.35-2.41,2.84-3.35,4.19-4-4.8-10.82-4.74-16.67-2.37s-8.86,7-9.55,13.17c-2.56.2-2.39.18-4.17-1.07a20.62,20.62,0,0,1,28-17.3c-.37-.15-.89-2.72-1-3.18-.41-1.26-.82-2.52-1.22-3.8-.85-2.72-1.67-5.46-2.41-8.23a90.57,90.57,0,0,1-2.91-16.08c-.18-2.29-.28-4.64-.25-6.94a49.52,49.52,0,0,1,1.37-10.85,51.51,51.51,0,0,1,9.45-19.62,48.63,48.63,0,0,1,5.77-6.15,14.52,14.52,0,0,1,1.69-1.3A18.43,18.43,0,0,1,67.59,78.66Z"/><path class="cls-33" d="M67.47,75.5a53.25,53.25,0,0,0-7-7.9,21,21,0,0,0-10.7-5.34C35,86.64,30.29,117.07,36.25,144.92c-2,1.24-5.9,2.57-7.88,3.79-11-28.54-6.49-62.52,11.54-87.24a3.78,3.78,0,0,0-2.51-1.3c.17-.24.34-.46.53-.7a21.72,21.72,0,0,1,20.43,1.42,20.57,20.57,0,0,1,8.83,12.92C67.31,74.37,67.4,74.93,67.47,75.5Z"/><path class="cls-23" d="M46.59,59.28a9.63,9.63,0,0,0-1.47-.55,6.75,6.75,0,0,0-1.79-.16,10.31,10.31,0,0,0-1.75.29,3.25,3.25,0,0,0-1.49.86.46.46,0,0,0,.2.76,3.85,3.85,0,0,0,1.6.29c.5,0,1,0,1.49-.06A12.79,12.79,0,0,0,45,60.48c.5-.13,1-.29,1.48-.44C46.8,60,46.93,59.43,46.59,59.28Z"/><path class="cls-34" d="M212,166.92c-2.26,1.59-1.82,1.63-4.53,1.41-.66-6.17-3.58-10.82-9.27-13.17s-12.35-2.43-16.2,2.37c-.92-1.35-2.34-2.84-3.26-4.19,5.05-12.05,10.23-25,10-38S183.33,87.6,173.8,78.66a4.7,4.7,0,0,1,0-.53c.16-.21.34-.42.5-.64,11,7.41,16.56,21,17.26,34.18s-2.87,26.27-6.94,38.86c7.81-.84,17.13.63,23,5.8a203.75,203.75,0,0,0,5-79.77C224.9,104,224.13,137.61,212,166.92Z"/><path class="cls-35" d="M198.32,146.25l-8.66-1.33a98.94,98.94,0,0,0,4.72-50.74c-1.76-10.32-6.23-20.69-15.43-25.66a25.68,25.68,0,0,0-4.66,10.62l-.49-.48a4.7,4.7,0,0,1,0-.53,20.17,20.17,0,0,1,28.84-18.66c.58.78,1.16,1.57,1.71,2.36A15,15,0,0,0,196,60.16a3.65,3.65,0,0,0,.1,2.22C208.39,88.24,209.54,119.92,198.32,146.25Z"/><path class="cls-23" d="M181.8,64.9a.84.84,0,0,0-.82-.56,2,2,0,0,0-.75.23,7.49,7.49,0,0,0-1,.63,5.79,5.79,0,0,0-1.07,1,7,7,0,0,0-.89,1.26,5.56,5.56,0,0,0-.32.8,1.88,1.88,0,0,0-.14.54l0,0a.65.65,0,0,0,.1.76.63.63,0,0,0,.76.09h0a.82.82,0,0,0,.25-.06l.31-.14.53-.25a4.51,4.51,0,0,0,.92-.65,4.76,4.76,0,0,0,.63-.56l.43-.48a3.2,3.2,0,0,0,.49-.67l.28-.53A2.06,2.06,0,0,0,181.8,64.9Z"/></g></g></svg>