<svg xmlns="http://www.w3.org/2000/svg" xmlns:xlink="http://www.w3.org/1999/xlink" viewBox="0 0 240 240"><defs><style>.cls-1{isolation:isolate;}.cls-2{fill:url(#Áåçûìÿííûé_ãðàäèåíò_38);}.cls-3{fill:url(#Áåçûìÿííûé_ãðàäèåíò_38-2);}.cls-4{fill:url(#Áåçûìÿííûé_ãðàäèåíò_40);}.cls-5{fill:url(#Áåçûìÿííûé_ãðàäèåíò_38-3);}.cls-22,.cls-23,.cls-24,.cls-6,.cls-7{mix-blend-mode:screen;}.cls-6{fill:url(#Áåçûìÿííûé_ãðàäèåíò_16);}.cls-24,.cls-8{fill:#efffe8;}.cls-9{fill:url(#Áåçûìÿííûé_ãðàäèåíò_38-4);}.cls-10{fill:url(#Áåçûìÿííûé_ãðàäèåíò_38-5);}.cls-11{fill:url(#Áåçûìÿííûé_ãðàäèåíò_38-6);}.cls-12{fill:url(#Áåçûìÿííûé_ãðàäèåíò_38-7);}.cls-13{fill:url(#Áåçûìÿííûé_ãðàäèåíò_38-8);}.cls-14{fill:url(#Áåçûìÿííûé_ãðàäèåíò_38-9);}.cls-15{fill:url(#Áåçûìÿííûé_ãðàäèåíò_38-10);}.cls-16{fill:url(#Áåçûìÿííûé_ãðàäèåíò_38-11);}.cls-17{fill:url(#Áåçûìÿííûé_ãðàäèåíò_38-12);}.cls-18{fill:url(#Áåçûìÿííûé_ãðàäèåíò_38-13);}.cls-19{fill:url(#Áåçûìÿííûé_ãðàäèåíò_38-14);}.cls-20{fill:url(#Áåçûìÿííûé_ãðàäèåíò_38-15);}.cls-21{fill:url(#Áåçûìÿííûé_ãðàäèåíò_40-2);}.cls-22{fill:url(#Áåçûìÿííûé_ãðàäèåíò_50);}.cls-23{fill:url(#Áåçûìÿííûé_ãðàäèåíò_50-2);}.cls-25{fill:url(#Áåçûìÿííûé_ãðàäèåíò_16-2);}.cls-26{fill:url(#Áåçûìÿííûé_ãðàäèåíò_16-3);}</style><linearGradient id="Áåçûìÿííûé_ãðàäèåíò_38" x1="118.06" y1="112.57" x2="116.85" y2="207.73" gradientUnits="userSpaceOnUse"><stop offset="0" stop-color="#406294"/><stop offset="1" stop-color="#132547"/></linearGradient><linearGradient id="Áåçûìÿííûé_ãðàäèåíò_38-2" x1="121.51" y1="212.96" x2="116.68" y2="114.18" xlink:href="#Áåçûìÿííûé_ãðàäèåíò_38"/><linearGradient id="Áåçûìÿííûé_ãðàäèåíò_40" x1="120" y1="71.68" x2="120" y2="245.55" gradientUnits="userSpaceOnUse"><stop offset="0.01" stop-color="#12b5aa"/><stop offset="0.99" stop-color="#35459c"/></linearGradient><linearGradient id="Áåçûìÿííûé_ãðàäèåíò_38-3" x1="120" y1="42.46" x2="120" y2="156.56" xlink:href="#Áåçûìÿííûé_ãðàäèåíò_38"/><linearGradient id="Áåçûìÿííûé_ãðàäèåíò_16" x1="92.13" y1="-36.3" x2="124.19" y2="123.44" gradientUnits="userSpaceOnUse"><stop offset="0" stop-color="#445b91"/><stop offset="1"/></linearGradient><linearGradient id="Áåçûìÿííûé_ãðàäèåíò_38-4" x1="29.09" y1="153.88" x2="56.54" y2="106.48" xlink:href="#Áåçûìÿííûé_ãðàäèåíò_38"/><linearGradient id="Áåçûìÿííûé_ãðàäèåíò_38-5" x1="60.4" y1="89.49" x2="41.07" y2="55.56" xlink:href="#Áåçûìÿííûé_ãðàäèåíò_38"/><linearGradient id="Áåçûìÿííûé_ãðàäèåíò_38-6" x1="84.48" y1="113.5" x2="53.33" y2="69.65" xlink:href="#Áåçûìÿííûé_ãðàäèåíò_38"/><linearGradient id="Áåçûìÿííûé_ãðàäèåíò_38-7" x1="69.25" y1="93.34" x2="53.52" y2="65.52" xlink:href="#Áåçûìÿííûé_ãðàäèåíò_38"/><linearGradient id="Áåçûìÿííûé_ãðàäèåíò_38-8" x1="39.9" y1="134.2" x2="48.92" y2="121.15" xlink:href="#Áåçûìÿííûé_ãðàäèåíò_38"/><linearGradient id="Áåçûìÿííûé_ãðàäèåíò_38-9" x1="54.3" y1="76.4" x2="43.94" y2="64.69" xlink:href="#Áåçûìÿííûé_ãðàäèåíò_38"/><linearGradient id="Áåçûìÿííûé_ãðàäèåíò_38-10" x1="431.43" y1="153.88" x2="458.89" y2="106.48" gradientTransform="matrix(-1, 0, 0, 1, 642.86, 0)" xlink:href="#Áåçûìÿííûé_ãðàäèåíò_38"/><linearGradient id="Áåçûìÿííûé_ãðàäèåíò_38-11" x1="462.74" y1="89.49" x2="443.41" y2="55.56" gradientTransform="matrix(-1, 0, 0, 1, 642.86, 0)" xlink:href="#Áåçûìÿííûé_ãðàäèåíò_38"/><linearGradient id="Áåçûìÿííûé_ãðàäèåíò_38-12" x1="486.82" y1="113.5" x2="455.68" y2="69.65" gradientTransform="matrix(-1, 0, 0, 1, 642.86, 0)" xlink:href="#Áåçûìÿííûé_ãðàäèåíò_38"/><linearGradient id="Áåçûìÿííûé_ãðàäèåíò_38-13" x1="471.59" y1="93.34" x2="455.86" y2="65.52" gradientTransform="matrix(-1, 0, 0, 1, 642.86, 0)" xlink:href="#Áåçûìÿííûé_ãðàäèåíò_38"/><linearGradient id="Áåçûìÿííûé_ãðàäèåíò_38-14" x1="442.24" y1="134.2" x2="451.26" y2="121.15" gradientTransform="matrix(-1, 0, 0, 1, 642.86, 0)" xlink:href="#Áåçûìÿííûé_ãðàäèåíò_38"/><linearGradient id="Áåçûìÿííûé_ãðàäèåíò_38-15" x1="456.64" y1="76.4" x2="446.28" y2="64.69" gradientTransform="matrix(-1, 0, 0, 1, 642.86, 0)" xlink:href="#Áåçûìÿííûé_ãðàäèåíò_38"/><linearGradient id="Áåçûìÿííûé_ãðàäèåíò_40-2" x1="117.26" y1="227.9" x2="120.48" y2="108.27" xlink:href="#Áåçûìÿííûé_ãðàäèåíò_40"/><linearGradient id="Áåçûìÿííûé_ãðàäèåíò_50" x1="53.16" y1="46.09" x2="76.37" y2="100.65" gradientUnits="userSpaceOnUse"><stop offset="0" stop-color="#c1f7d5"/><stop offset="1"/></linearGradient><linearGradient id="Áåçûìÿííûé_ãðàäèåíò_50-2" x1="204.02" y1="175.07" x2="170.13" y2="95.21" xlink:href="#Áåçûìÿííûé_ãðàäèåíò_50"/><linearGradient id="Áåçûìÿííûé_ãðàäèåíò_16-2" x1="133" y1="12.23" x2="174.32" y2="128.23" xlink:href="#Áåçûìÿííûé_ãðàäèåíò_16"/><linearGradient id="Áåçûìÿííûé_ãðàäèåíò_16-3" x1="100.63" y1="108.53" x2="100.63" y2="56.68" xlink:href="#Áåçûìÿííûé_ãðàäèåíò_16"/></defs><g class="cls-1"><g id="layer_1" data-name="layer 1"><path class="cls-2" d="M55.35,162.91c0-1.21,4.53-11.78,4.53-11.78S91.3,172,116.07,171.07s50.15-19,50.15-19l17.83,11.18s-12.39,21.45-62.84,25.38-70.39-28.4-70.39-28.4Z"/><path class="cls-3" d="M190.69,161.42a102.91,102.91,0,0,1-143.45-.87c1.1-.53,1.49-1,2.59-1.57A96.9,96.9,0,0,0,108,186.21a104.39,104.39,0,0,0,63.87-14c5.32-3.16,8.59-7.26,13.43-11.09a7.25,7.25,0,0,1,3-1.66C189.43,159.23,190.31,160.35,190.69,161.42Z"/><path class="cls-4" d="M217.08,134.52c-6.05,15.5-16.52,29.2-27.79,32.21-9.79,2.63-42-6.27-50.37-8.68a5.7,5.7,0,0,1-3.07-2.11c-2.29-3-8.13-9.54-15.85-9.54s-13.55,6.51-15.85,9.54a5.71,5.71,0,0,1-3.06,2.11c-8.37,2.41-40.59,11.31-50.37,8.68-11.28-3-21.75-16.71-27.8-32.21-1.49-3.83-1.62-9.28-.74-15.52,2.64-19,14.59-45.41,25.52-55,6.24-5.46,15.73-7.41,23.58-9.06a254.55,254.55,0,0,1,30.36-4.25,232.63,232.63,0,0,1,61.87,3.23c9.4,1.69,21.34,3.55,28.79,10.08,11.3,9.89,23.69,37.72,25.76,56.88C218.65,126.34,218.42,131.08,217.08,134.52Z"/><path class="cls-5" d="M204.38,137.73c-9.38,10.92-51.95-4.42-84.38-4.42s-75,15.34-84.38,4.42c-14.71-17.12-1.38-58.4,14.29-70.88C64.67,55.09,100.66,52.54,120,52.54s55.34,2.55,70.09,14.31C205.77,79.33,219.09,120.61,204.38,137.73Z"/><path class="cls-6" d="M36.07,92.38c-1.53,4.19-2.4,8.62-.72,12,1.34,2.72,4.78,3.71,7.81,3.64a58.49,58.49,0,0,0,11.65-1.46C72,102.64,89,99.33,106.66,98.51a240.41,240.41,0,0,1,52.56,3.35,234.53,234.53,0,0,1,27.19,6.45,31.76,31.76,0,0,0,8.18,1.73,9.66,9.66,0,0,0,7.58-2.92c2.14-2.48,2.41-6,2.07-9.08-2-18.13-16.27-32.24-33-37.89-11.46-3.87-24.21-4.27-36.19-5a250.32,250.32,0,0,0-49.93,1.74C73.61,58.38,63.08,60.5,53.18,67,47,71,43,77.11,39.92,83.66,38.82,86.05,37.25,89.14,36.07,92.38Z"/><g class="cls-7"><path class="cls-8" d="M73.81,80.2s0,.22,0,.61a9.18,9.18,0,0,1-.11,1.67,9.64,9.64,0,0,1-2.42,5,11.89,11.89,0,0,1-4.63,3,12.65,12.65,0,0,1-1.6.47l-.6.13.57-.22a15.44,15.44,0,0,0,1.51-.65,14.75,14.75,0,0,0,4.32-3.14,11.17,11.17,0,0,0,2.56-4.63,11.78,11.78,0,0,0,.31-1.61C73.79,80.42,73.81,80.2,73.81,80.2Z"/></g><g class="cls-7"><path class="cls-8" d="M57.28,68.15s0,.21-.1.57a10.13,10.13,0,0,1-.44,1.53,12.55,12.55,0,0,1-2.85,4.4,16.1,16.1,0,0,1-4.25,3.07,14.18,14.18,0,0,1-2,.84s.73-.38,1.84-1.09a23.19,23.19,0,0,0,4-3.23,16.58,16.58,0,0,0,3-4.11,12.35,12.35,0,0,0,.62-1.43Z"/></g><g class="cls-7"><path class="cls-8" d="M49.44,127.07a7.09,7.09,0,0,1,.5.65,7.6,7.6,0,0,1,1,2A6.35,6.35,0,0,1,51,133.1a5.8,5.8,0,0,1-2.35,3.41,5.62,5.62,0,0,1-4.06.77,9.37,9.37,0,0,1-3.14-1.16,20.93,20.93,0,0,1-1.87-1.21l-.66-.48.71.4c.46.26,1.12.64,2,1a10.09,10.09,0,0,0,3.07.93,5.41,5.41,0,0,0,3.67-.77A5.64,5.64,0,0,0,50.54,133a6.28,6.28,0,0,0,.08-3.15,7.52,7.52,0,0,0-.76-2A7.67,7.67,0,0,0,49.44,127.07Z"/></g><path class="cls-9" d="M40.44,122.52c4.83-.36,11.16,4.43,10.4,9.67-.52,3.57-3.85,5-7.09,4.4-4.56-.88-10.82-6.18-7.76-11.31A5.46,5.46,0,0,1,40.44,122.52Z"/><path class="cls-10" d="M44.82,76.69c-.63,2,.91,3.07,2.75,1.82,1.66-1.13,12.09-9.36,9-11.66a1.75,1.75,0,0,0-1.44-.15,13.51,13.51,0,0,0-5.21,2.91,16,16,0,0,0-5,6.87A1.72,1.72,0,0,0,44.82,76.69Z"/><path class="cls-11" d="M54.93,85.67c-1.23,3.07-.51,6.27,3.64,6.51,5.64.33,12.49-4.33,14.55-9.6s-3.79-6-7.56-5.23a14,14,0,0,0-1.68.47,16.26,16.26,0,0,0-8.29,6.52A9.14,9.14,0,0,0,54.93,85.67Z"/><path class="cls-12" d="M57.7,86.25c-1,2.41-.4,4.91,2.85,5.1C65,91.6,70.32,88,71.93,83.84S69,79.1,66,79.74a12.16,12.16,0,0,0-1.31.37,12.68,12.68,0,0,0-6.49,5.1A7.76,7.76,0,0,0,57.7,86.25Z"/><path class="cls-13" d="M41.41,123.41c3.78-.28,8.71,3.45,8.12,7.54-.41,2.79-3,3.93-5.53,3.44-3.56-.69-8.44-4.82-6-8.83A4.22,4.22,0,0,1,41.41,123.41Z"/><path class="cls-14" d="M46.85,76c-.48,1.5.68,2.29,2,1.35s9-7,6.71-8.69a1.34,1.34,0,0,0-1.08-.11,10.22,10.22,0,0,0-3.88,2.17,12.07,12.07,0,0,0-3.75,5.12A1,1,0,0,0,46.85,76Z"/><path class="cls-15" d="M200.08,122.52c-4.84-.36-11.17,4.43-10.4,9.67.52,3.57,3.84,5,7.08,4.4,4.57-.88,10.82-6.18,7.77-11.31A5.46,5.46,0,0,0,200.08,122.52Z"/><path class="cls-16" d="M195.7,76.69c.63,2-.92,3.07-2.75,1.82-1.66-1.13-12.09-9.36-9-11.66a1.75,1.75,0,0,1,1.44-.15,13.47,13.47,0,0,1,5.2,2.91,16.14,16.14,0,0,1,5,6.87C195.65,76.55,195.68,76.62,195.7,76.69Z"/><path class="cls-17" d="M185.59,85.67c1.22,3.07.51,6.27-3.64,6.51-5.64.33-12.49-4.33-14.55-9.6s3.79-6,7.55-5.23a13.45,13.45,0,0,1,1.68.47,16.25,16.25,0,0,1,8.3,6.52A9.14,9.14,0,0,1,185.59,85.67Z"/><path class="cls-18" d="M182.81,86.25c1,2.41.41,4.91-2.84,5.1-4.41.25-9.77-3.39-11.39-7.51s3-4.74,5.92-4.1a12.16,12.16,0,0,1,1.31.37,12.72,12.72,0,0,1,6.49,5.1A7.68,7.68,0,0,1,182.81,86.25Z"/><path class="cls-19" d="M199.1,123.41c-3.77-.28-8.71,3.45-8.11,7.54.4,2.79,3,3.93,5.52,3.44,3.56-.69,8.44-4.82,6.06-8.83A4.24,4.24,0,0,0,199.1,123.41Z"/><path class="cls-20" d="M193.67,76c.47,1.5-.68,2.29-2,1.35s-9-7-6.71-8.69a1.32,1.32,0,0,1,1.07-.11,10.18,10.18,0,0,1,3.89,2.17,12.07,12.07,0,0,1,3.75,5.12A1,1,0,0,1,193.67,76Z"/><g class="cls-7"><path class="cls-8" d="M205.48,127.16a6.5,6.5,0,0,1,0,.66,9.83,9.83,0,0,1-.32,1.8,9.84,9.84,0,0,1-8.81,7.28,9.39,9.39,0,0,1-1.82,0c-.42-.05-.66-.1-.66-.1h.67a11.91,11.91,0,0,0,1.77-.18,11.13,11.13,0,0,0,8.57-7.07,11.44,11.44,0,0,0,.5-1.72C205.44,127.39,205.48,127.16,205.48,127.16Z"/></g><g class="cls-7"><path class="cls-8" d="M183.7,82.23l.56.73a13.83,13.83,0,0,1,1.35,2.14,6.21,6.21,0,0,1,.68,3.72,4.12,4.12,0,0,1-.95,2.11,4.27,4.27,0,0,1-2.14,1.28,9.59,9.59,0,0,1-4.64-.16A16.1,16.1,0,0,1,175,90.78a15.68,15.68,0,0,1-2.18-1.27c-.48-.34-.74-.54-.74-.54l.79.46a19.93,19.93,0,0,0,5.77,2.14,10.12,10.12,0,0,0,4.39.07,3.89,3.89,0,0,0,1.87-1.08,3.77,3.77,0,0,0,.88-1.83,6.06,6.06,0,0,0-.46-3.51A16.3,16.3,0,0,0,184.18,83Z"/></g><g class="cls-7"><path class="cls-8" d="M188.48,75.11s.59.42,1.52,1.11a17,17,0,0,0,3.83,2.22,3.34,3.34,0,0,0,1.15.19c.21,0,.35,0,.43-.1a.66.66,0,0,0,.24-.34,3.93,3.93,0,0,0-.17-1.88,6.45,6.45,0,0,0-.48-1.26l-.24-.45.32.4a5.69,5.69,0,0,1,.68,1.21,3.75,3.75,0,0,1,.37,2.11,1.12,1.12,0,0,1-.39.63,1.14,1.14,0,0,1-.73.24,3.16,3.16,0,0,1-1.38-.2,11.92,11.92,0,0,1-3.82-2.54C189,75.64,188.48,75.11,188.48,75.11Z"/></g><path class="cls-21" d="M217.08,134.52c-6.05,15.5-16.52,29.2-27.79,32.21-9.79,2.63-42-6.27-50.37-8.68a5.7,5.7,0,0,1-3.07-2.11c-2.29-3-8.13-9.54-15.85-9.54s-13.55,6.51-15.85,9.54a5.71,5.71,0,0,1-3.06,2.11c-8.37,2.41-40.59,11.31-50.37,8.68-11.28-3-21.75-16.71-27.8-32.21-1.49-3.83-1.62-9.28-.74-15.52,1.58,7,3.8,14,8.42,19.31,9,10.42,25.5,7.14,37.39,5,14.94-2.68,30.5-6.14,46-6,15.87.12,31.78,2.56,47.3,5.71,14.26,2.89,36,11.26,47.29-2.69a48.29,48.29,0,0,0,9.48-19.42C218.65,126.34,218.42,131.08,217.08,134.52Z"/><path class="cls-22" d="M33.05,88.29a113,113,0,0,1,9.12-16.6,39.69,39.69,0,0,1,6.13-7.35,28,28,0,0,1,8.45-4.56A91.68,91.68,0,0,1,65.86,57c3.07-.78,6.16-1.47,9.26-2,6.21-1.17,12.47-2.09,18.75-2.68-3.11.54-6.21,1.07-9.31,1.69s-6.18,1.2-9.25,1.88a134.74,134.74,0,0,0-18.14,5A26.85,26.85,0,0,0,49,65.15a44.41,44.41,0,0,0-6.09,7.06c-1.84,2.53-3.53,5.19-5.15,7.88S34.56,85.53,33.05,88.29Z"/><path class="cls-23" d="M148.2,137.51c9,1.43,18,2.77,27,3.92,4.5.54,9,1.07,13.5,1.32,2.24.13,4.49.22,6.7.15s4.52-.25,6-1.13a21.88,21.88,0,0,0,4.87-4.23,40.2,40.2,0,0,0,3.92-5.31,37.66,37.66,0,0,0,3-5.91,22.79,22.79,0,0,0,1.61-6.28c.19-2-.43-4.28-.83-6.49s-1-4.43-1.48-6.64c-1-4.44-2.1-8.84-3.13-13.28,1.54,4.29,2.89,8.63,4.26,13q1,3.27,1.86,6.58c.29,1.11.56,2.22.8,3.35a15,15,0,0,1,.3,1.76c0,.3.07.62.08.92l0,.91a22.44,22.44,0,0,1-1.52,6.93,39.32,39.32,0,0,1-3,6.32,40.1,40.1,0,0,1-4.11,5.69,24,24,0,0,1-5.36,4.71A10.36,10.36,0,0,1,199,145a32.79,32.79,0,0,1-3.53.26,66.4,66.4,0,0,1-6.93-.23q-6.85-.58-13.6-1.73C165.9,141.79,157,139.83,148.2,137.51Z"/><path class="cls-24" d="M204.16,139.88l-.3.17-.17.1s-.1,0,0,0a4.17,4.17,0,0,0-.74.35,4.66,4.66,0,0,0-.77.47l-.55.45-.1.08h0l-.36.27c-.21.16-.4.35-.61.52a1.66,1.66,0,0,0-.14.13l-.1.13-.21.27a3.14,3.14,0,0,1-.52.51c-.42.35,0,1.06.52.9a5.2,5.2,0,0,1,.68-.17,3.61,3.61,0,0,0,.85-.25,7,7,0,0,0,1.27-.73l.57-.43a4.24,4.24,0,0,0,.72-.8l.23-.3a3.11,3.11,0,0,0,.2-.41l0,0a1.4,1.4,0,0,0,.1-.16c.07-.11.14-.22.2-.33A.56.56,0,0,0,204.16,139.88Z"/><path class="cls-24" d="M53.29,61l-.35,0a1.22,1.22,0,0,0-.36.14l-.62.28a4.22,4.22,0,0,0-.61.28c-.19.13-.37.27-.55.41L49.71,63a1.56,1.56,0,0,0-.4.37c-.07.08-.12.17-.18.25a1.28,1.28,0,0,0-.23.54l0,.1c-.07.15,0,.38.21.36h.11a1.24,1.24,0,0,0,.6,0,1.94,1.94,0,0,0,.71-.25l1.14-.74c.19-.12.38-.23.56-.36a5,5,0,0,0,.59-.54l.46-.47a1.73,1.73,0,0,0,.4-.57C53.73,61.37,53.62,61,53.29,61Z"/><path class="cls-8" d="M82.05,58.35a12.81,12.81,0,0,0-5.12.22c-.82.17-1.66.32-2.47.56a13.15,13.15,0,0,0-1.26.39,8.12,8.12,0,0,0-1.11.63.39.39,0,0,0,.2.72,6.22,6.22,0,0,0,1.29.05l1.28-.16c.83-.1,1.65-.27,2.47-.4a17.46,17.46,0,0,0,4.83-1.2A.45.45,0,0,0,82.05,58.35Z"/><g class="cls-7"><path class="cls-25" d="M172.94,108.53c-1.46,2.61-2.24,4-3.93,6.61-3.29-.55-4.93-.84-8.14-1.53-1.59-3.29-2.44-5-4.32-8.24,1.33-2.55,1.95-3.84,3.12-6.4,3.32.67,5,1,8.32,1.61C170.1,103.76,171.09,105.35,172.94,108.53Zm9.47,2.18c-3.27-.57-4.93-.83-8.24-1.39-1.48,2.61-2.27,4-4,6.61,1.58,3.2,2.32,4.78,3.66,7.87,3.3.42,5,.61,8.17,1,1.93-2.6,2.82-3.89,4.5-6.42C185,115.34,184.2,113.8,182.41,110.71Zm-13.69,5.59c-3.29-.55-4.93-.84-8.13-1.54-1.65,2.6-2.53,3.88-4.34,6.37,1.23,3.34,1.77,5,2.76,8.24a75.51,75.51,0,0,0,8,1.44c2.24-2.62,3.3-4,5.28-6.61C171,121.09,170.28,119.5,168.72,116.3Z"/></g><g class="cls-7"><path class="cls-26" d="M104.6,59.23c-2.61,2.27-3.94,3.46-6.6,5.9-4.41.37-6.61.63-11,1.28a44.12,44.12,0,0,1-3.44-4.9c3-2.64,4.44-3.91,7.41-6.35,4-.54,6-.75,10-1A52.56,52.56,0,0,0,104.6,59.23Zm12.05.39c-4.23-.15-6.36-.15-10.62,0-2.58,2.25-3.89,3.42-6.53,5.85,1.78,2.08,2.76,3.14,4.76,5.23,4.55-.26,6.84-.32,11.36-.31l6-5.18C119.52,63,118.51,61.83,116.65,59.62Zm-19.2,6.47c-4.43.39-6.65.66-11,1.33-2.76,2.66-4.14,4-6.77,6.89,1.76,2,2.73,3,4.74,4.92,4.49-.84,6.77-1.19,11.35-1.75,2.54-2.55,3.85-3.78,6.42-6.19C100.19,69.21,99.22,68.16,97.45,66.09Z"/></g></g></g></svg>